<svg width="215" height="111" viewBox="0 0 215 111" fill="none" xmlns="http://www.w3.org/2000/svg">
<g opacity="0.5" filter="url(#filter0_d_20287_293)">
<rect x="7" y="5" width="199" height="65" rx="10" fill="black" fill-opacity="0.05" shape-rendering="crispEdges"/>
<rect x="7.05" y="5.05" width="198.9" height="64.9" rx="9.95" stroke="#333333" stroke-width="0.1" shape-rendering="crispEdges"/>
</g>
<rect x="7" y="30" width="199" height="70" rx="10" fill="#FAFAFA"/>
<g opacity="0.5" filter="url(#filter1_d_20287_293)">
<rect x="7" y="30" width="199" height="70" rx="10" fill="white"/>
<rect x="7.05" y="30.05" width="198.9" height="69.9" rx="9.95" stroke="#333333" stroke-width="0.1"/>
</g>
<path d="M19.9414 50H15.1719V41.4336H19.9414V42.3125H16.168V45.084H19.7246V45.9512H16.168V49.1211H19.9414V50ZM24.7344 43.4609C25.4961 43.4609 26.0723 43.6484 26.4629 44.0234C26.8535 44.3945 27.0488 44.9922 27.0488 45.8164V50H26.0879V45.8809C26.0879 45.3457 25.9648 44.9453 25.7188 44.6797C25.4766 44.4141 25.1035 44.2812 24.5996 44.2812C23.8887 44.2812 23.3887 44.4824 23.0996 44.8848C22.8105 45.2871 22.666 45.8711 22.666 46.6367V50H21.6934V43.5781H22.4785L22.625 44.5039H22.6777C22.8145 44.2773 22.9883 44.0879 23.1992 43.9355C23.4102 43.7793 23.6465 43.6621 23.9082 43.584C24.1699 43.502 24.4453 43.4609 24.7344 43.4609ZM31.127 49.3203C31.2871 49.3203 31.4512 49.3066 31.6191 49.2793C31.7871 49.252 31.9238 49.2188 32.0293 49.1797V49.9355C31.916 49.9863 31.7578 50.0293 31.5547 50.0645C31.3555 50.0996 31.1602 50.1172 30.9688 50.1172C30.6289 50.1172 30.3203 50.0586 30.043 49.9414C29.7656 49.8203 29.543 49.6172 29.375 49.332C29.2109 49.0469 29.1289 48.6523 29.1289 48.1484V44.3398H28.2148V43.8652L29.1348 43.4844L29.5215 42.0898H30.1074V43.5781H31.9883V44.3398H30.1074V48.1191C30.1074 48.5215 30.1992 48.8223 30.3828 49.0215C30.5703 49.2207 30.8184 49.3203 31.127 49.3203ZM35.8027 43.4609C36.3496 43.4609 36.8184 43.582 37.209 43.8242C37.5996 44.0664 37.8984 44.4062 38.1055 44.8438C38.3125 45.2773 38.416 45.7852 38.416 46.3672V46.9707H33.9805C33.9922 47.7246 34.1797 48.2988 34.543 48.6934C34.9062 49.0879 35.418 49.2852 36.0781 49.2852C36.4844 49.2852 36.8438 49.248 37.1562 49.1738C37.4688 49.0996 37.793 48.9902 38.1289 48.8457V49.7012C37.8047 49.8457 37.4824 49.9512 37.1621 50.0176C36.8457 50.084 36.4707 50.1172 36.0371 50.1172C35.4199 50.1172 34.8809 49.9922 34.4199 49.7422C33.9629 49.4883 33.6074 49.1172 33.3535 48.6289C33.0996 48.1406 32.9727 47.543 32.9727 46.8359C32.9727 46.1445 33.0879 45.5469 33.3184 45.043C33.5527 44.5352 33.8809 44.1445 34.3027 43.8711C34.7285 43.5977 35.2285 43.4609 35.8027 43.4609ZM35.791 44.2578C35.2715 44.2578 34.8574 44.4277 34.5488 44.7676C34.2402 45.1074 34.0566 45.582 33.998 46.1914H37.3965C37.3926 45.8086 37.332 45.4727 37.2148 45.1836C37.1016 44.8906 36.9277 44.6641 36.6934 44.5039C36.459 44.3398 36.1582 44.2578 35.791 44.2578ZM42.9863 43.4609C43.1152 43.4609 43.25 43.4688 43.3906 43.4844C43.5312 43.4961 43.6562 43.5137 43.7656 43.5371L43.6426 44.4395C43.5371 44.4121 43.4199 44.3906 43.291 44.375C43.1621 44.3594 43.041 44.3516 42.9277 44.3516C42.6699 44.3516 42.4258 44.4043 42.1953 44.5098C41.9688 44.6113 41.7695 44.7598 41.5977 44.9551C41.4258 45.1465 41.291 45.3789 41.1934 45.6523C41.0957 45.9219 41.0469 46.2227 41.0469 46.5547V50H40.0684V43.5781H40.877L40.9824 44.7617H41.0234C41.1562 44.5234 41.3164 44.3066 41.5039 44.1113C41.6914 43.9121 41.9082 43.7539 42.1543 43.6367C42.4043 43.5195 42.6816 43.4609 42.9863 43.4609ZM50.873 50H49.8711V42.3125H47.1758V41.4336H53.5566V42.3125H50.873V50ZM57.1777 43.4609C57.7246 43.4609 58.1934 43.582 58.584 43.8242C58.9746 44.0664 59.2734 44.4062 59.4805 44.8438C59.6875 45.2773 59.791 45.7852 59.791 46.3672V46.9707H55.3555C55.3672 47.7246 55.5547 48.2988 55.918 48.6934C56.2812 49.0879 56.793 49.2852 57.4531 49.2852C57.8594 49.2852 58.2188 49.248 58.5312 49.1738C58.8438 49.0996 59.168 48.9902 59.5039 48.8457V49.7012C59.1797 49.8457 58.8574 49.9512 58.5371 50.0176C58.2207 50.084 57.8457 50.1172 57.4121 50.1172C56.7949 50.1172 56.2559 49.9922 55.7949 49.7422C55.3379 49.4883 54.9824 49.1172 54.7285 48.6289C54.4746 48.1406 54.3477 47.543 54.3477 46.8359C54.3477 46.1445 54.4629 45.5469 54.6934 45.043C54.9277 44.5352 55.2559 44.1445 55.6777 43.8711C56.1035 43.5977 56.6035 43.4609 57.1777 43.4609ZM57.166 44.2578C56.6465 44.2578 56.2324 44.4277 55.9238 44.7676C55.6152 45.1074 55.4316 45.582 55.373 46.1914H58.7715C58.7676 45.8086 58.707 45.4727 58.5898 45.1836C58.4766 44.8906 58.3027 44.6641 58.0684 44.5039C57.834 44.3398 57.5332 44.2578 57.166 44.2578ZM62.9727 46.7129L60.752 43.5781H61.8652L63.5586 46.0508L65.2461 43.5781H66.3477L64.127 46.7129L66.4707 50H65.3574L63.5586 47.3809L61.748 50H60.6465L62.9727 46.7129ZM69.7988 49.3203C69.959 49.3203 70.123 49.3066 70.291 49.2793C70.459 49.252 70.5957 49.2188 70.7012 49.1797V49.9355C70.5879 49.9863 70.4297 50.0293 70.2266 50.0645C70.0273 50.0996 69.832 50.1172 69.6406 50.1172C69.3008 50.1172 68.9922 50.0586 68.7148 49.9414C68.4375 49.8203 68.2148 49.6172 68.0469 49.332C67.8828 49.0469 67.8008 48.6523 67.8008 48.1484V44.3398H66.8867V43.8652L67.8066 43.4844L68.1934 42.0898H68.7793V43.5781H70.6602V44.3398H68.7793V48.1191C68.7793 48.5215 68.8711 48.8223 69.0547 49.0215C69.2422 49.2207 69.4902 49.3203 69.7988 49.3203ZM76.0918 40.8828V43.6074C76.0918 43.7637 76.0879 43.9219 76.0801 44.082C76.0723 44.2383 76.0586 44.3828 76.0391 44.5156H76.1035C76.2363 44.2891 76.4043 44.0996 76.6074 43.9473C76.8145 43.791 77.0488 43.6738 77.3105 43.5957C77.5723 43.5137 77.8496 43.4727 78.1426 43.4727C78.6582 43.4727 79.0879 43.5547 79.4316 43.7188C79.7793 43.8828 80.0391 44.1367 80.2109 44.4805C80.3867 44.8242 80.4746 45.2695 80.4746 45.8164V50H79.5137V45.8809C79.5137 45.3457 79.3906 44.9453 79.1445 44.6797C78.9023 44.4141 78.5293 44.2812 78.0254 44.2812C77.5488 44.2812 77.168 44.373 76.8828 44.5566C76.6016 44.7363 76.3984 45.002 76.2734 45.3535C76.1523 45.7051 76.0918 46.1348 76.0918 46.6426V50H75.1191V40.8828H76.0918ZM84.9512 43.4609C85.498 43.4609 85.9668 43.582 86.3574 43.8242C86.748 44.0664 87.0469 44.4062 87.2539 44.8438C87.4609 45.2773 87.5645 45.7852 87.5645 46.3672V46.9707H83.1289C83.1406 47.7246 83.3281 48.2988 83.6914 48.6934C84.0547 49.0879 84.5664 49.2852 85.2266 49.2852C85.6328 49.2852 85.9922 49.248 86.3047 49.1738C86.6172 49.0996 86.9414 48.9902 87.2773 48.8457V49.7012C86.9531 49.8457 86.6309 49.9512 86.3105 50.0176C85.9941 50.084 85.6191 50.1172 85.1855 50.1172C84.5684 50.1172 84.0293 49.9922 83.5684 49.7422C83.1113 49.4883 82.7559 49.1172 82.502 48.6289C82.248 48.1406 82.1211 47.543 82.1211 46.8359C82.1211 46.1445 82.2363 45.5469 82.4668 45.043C82.7012 44.5352 83.0293 44.1445 83.4512 43.8711C83.877 43.5977 84.377 43.4609 84.9512 43.4609ZM84.9395 44.2578C84.4199 44.2578 84.0059 44.4277 83.6973 44.7676C83.3887 45.1074 83.2051 45.582 83.1465 46.1914H86.5449C86.541 45.8086 86.4805 45.4727 86.3633 45.1836C86.25 44.8906 86.0762 44.6641 85.8418 44.5039C85.6074 44.3398 85.3066 44.2578 84.9395 44.2578ZM92.1348 43.4609C92.2637 43.4609 92.3984 43.4688 92.5391 43.4844C92.6797 43.4961 92.8047 43.5137 92.9141 43.5371L92.791 44.4395C92.6855 44.4121 92.5684 44.3906 92.4395 44.375C92.3105 44.3594 92.1895 44.3516 92.0762 44.3516C91.8184 44.3516 91.5742 44.4043 91.3438 44.5098C91.1172 44.6113 90.918 44.7598 90.7461 44.9551C90.5742 45.1465 90.4395 45.3789 90.3418 45.6523C90.2441 45.9219 90.1953 46.2227 90.1953 46.5547V50H89.2168V43.5781H90.0254L90.1309 44.7617H90.1719C90.3047 44.5234 90.4648 44.3066 90.6523 44.1113C90.8398 43.9121 91.0566 43.7539 91.3027 43.6367C91.5527 43.5195 91.8301 43.4609 92.1348 43.4609ZM96.5996 43.4609C97.1465 43.4609 97.6152 43.582 98.0059 43.8242C98.3965 44.0664 98.6953 44.4062 98.9023 44.8438C99.1094 45.2773 99.2129 45.7852 99.2129 46.3672V46.9707H94.7773C94.7891 47.7246 94.9766 48.2988 95.3398 48.6934C95.7031 49.0879 96.2148 49.2852 96.875 49.2852C97.2812 49.2852 97.6406 49.248 97.9531 49.1738C98.2656 49.0996 98.5898 48.9902 98.9258 48.8457V49.7012C98.6016 49.8457 98.2793 49.9512 97.959 50.0176C97.6426 50.084 97.2676 50.1172 96.834 50.1172C96.2168 50.1172 95.6777 49.9922 95.2168 49.7422C94.7598 49.4883 94.4043 49.1172 94.1504 48.6289C93.8965 48.1406 93.7695 47.543 93.7695 46.8359C93.7695 46.1445 93.8848 45.5469 94.1152 45.043C94.3496 44.5352 94.6777 44.1445 95.0996 43.8711C95.5254 43.5977 96.0254 43.4609 96.5996 43.4609ZM96.5879 44.2578C96.0684 44.2578 95.6543 44.4277 95.3457 44.7676C95.0371 45.1074 94.8535 45.582 94.7949 46.1914H98.1934C98.1895 45.8086 98.1289 45.4727 98.0117 45.1836C97.8984 44.8906 97.7246 44.6641 97.4902 44.5039C97.2559 44.3398 96.9551 44.2578 96.5879 44.2578Z" fill="#6C757D"/>
<path d="M19.9277 19.7207C19.9277 20.2285 19.8008 20.6621 19.5469 21.0215C19.2969 21.377 18.9453 21.6484 18.4922 21.8359C18.0391 22.0234 17.5059 22.1172 16.8926 22.1172C16.5684 22.1172 16.2617 22.1016 15.9727 22.0703C15.6836 22.0391 15.418 21.9941 15.1758 21.9355C14.9336 21.877 14.7207 21.8047 14.5371 21.7188V20.7637C14.8301 20.8848 15.1875 20.998 15.6094 21.1035C16.0312 21.2051 16.4727 21.2559 16.9336 21.2559C17.3633 21.2559 17.7266 21.1992 18.0234 21.0859C18.3203 20.9688 18.5449 20.8027 18.6973 20.5879C18.8535 20.3691 18.9316 20.1074 18.9316 19.8027C18.9316 19.5098 18.8672 19.2656 18.7383 19.0703C18.6094 18.8711 18.3945 18.6914 18.0938 18.5312C17.7969 18.3672 17.3906 18.1934 16.875 18.0098C16.5117 17.8809 16.1914 17.7402 15.9141 17.5879C15.6367 17.4316 15.4043 17.2559 15.2168 17.0605C15.0293 16.8652 14.8867 16.6387 14.7891 16.3809C14.6953 16.123 14.6484 15.8281 14.6484 15.4961C14.6484 15.0391 14.7637 14.6484 14.9941 14.3242C15.2285 13.9961 15.5508 13.7461 15.9609 13.5742C16.375 13.3984 16.8496 13.3105 17.3848 13.3105C17.8418 13.3105 18.2637 13.3535 18.6504 13.4395C19.041 13.5254 19.3984 13.6406 19.7227 13.7852L19.4121 14.6406C19.1035 14.5117 18.7754 14.4043 18.4277 14.3184C18.084 14.2324 17.7285 14.1895 17.3613 14.1895C16.9941 14.1895 16.6836 14.2441 16.4297 14.3535C16.1797 14.459 15.9883 14.6094 15.8555 14.8047C15.7227 15 15.6562 15.2324 15.6562 15.502C15.6562 15.8027 15.7188 16.0527 15.8438 16.252C15.9727 16.4512 16.1758 16.6289 16.4531 16.7852C16.7344 16.9375 17.1055 17.0977 17.5664 17.2656C18.0703 17.4492 18.498 17.6445 18.8496 17.8516C19.2012 18.0547 19.4688 18.3047 19.6523 18.6016C19.8359 18.8945 19.9277 19.2676 19.9277 19.7207ZM26.8359 15.5781V22H26.0391L25.8984 21.0977H25.8457C25.7129 21.3203 25.541 21.5078 25.3301 21.6602C25.1191 21.8125 24.8809 21.9258 24.6152 22C24.3535 22.0781 24.0742 22.1172 23.7773 22.1172C23.2695 22.1172 22.8438 22.0352 22.5 21.8711C22.1562 21.707 21.8965 21.4531 21.7207 21.1094C21.5488 20.7656 21.4629 20.3242 21.4629 19.7852V15.5781H22.4473V19.7148C22.4473 20.25 22.5684 20.6504 22.8105 20.916C23.0527 21.1777 23.4219 21.3086 23.918 21.3086C24.3945 21.3086 24.7734 21.2188 25.0547 21.0391C25.3398 20.8594 25.5449 20.5957 25.6699 20.248C25.7949 19.8965 25.8574 19.4668 25.8574 18.959V15.5781H26.8359ZM29.8652 12.8828V15.1621C29.8652 15.4238 29.8574 15.6777 29.8418 15.9238C29.8301 16.1699 29.8203 16.3613 29.8125 16.498H29.8652C30.041 16.209 30.2949 15.9648 30.627 15.7656C30.959 15.5664 31.3828 15.4668 31.8984 15.4668C32.7031 15.4668 33.3438 15.7461 33.8203 16.3047C34.3008 16.8594 34.541 17.6855 34.541 18.7832C34.541 19.5059 34.4316 20.1152 34.2129 20.6113C33.9941 21.1074 33.6855 21.4824 33.2871 21.7363C32.8887 21.9902 32.418 22.1172 31.875 22.1172C31.3672 22.1172 30.9492 22.0234 30.6211 21.8359C30.2969 21.6445 30.0469 21.4121 29.8711 21.1387H29.7949L29.5957 22H28.8926V12.8828H29.8652ZM31.7402 16.2812C31.2754 16.2812 30.9062 16.373 30.6328 16.5566C30.3594 16.7363 30.1621 17.0098 30.041 17.377C29.9238 17.7402 29.8652 18.2012 29.8652 18.7598V18.8125C29.8652 19.6211 30 20.2402 30.2695 20.6699C30.5391 21.0957 31.0293 21.3086 31.7402 21.3086C32.3379 21.3086 32.7852 21.0898 33.082 20.6523C33.3828 20.2148 33.5332 19.5898 33.5332 18.7773C33.5332 17.9492 33.3848 17.3262 33.0879 16.9082C32.7949 16.4902 32.3457 16.2812 31.7402 16.2812ZM41.4316 21.3203C41.5918 21.3203 41.7559 21.3066 41.9238 21.2793C42.0918 21.252 42.2285 21.2188 42.334 21.1797V21.9355C42.2207 21.9863 42.0625 22.0293 41.8594 22.0645C41.6602 22.0996 41.4648 22.1172 41.2734 22.1172C40.9336 22.1172 40.625 22.0586 40.3477 21.9414C40.0703 21.8203 39.8477 21.6172 39.6797 21.332C39.5156 21.0469 39.4336 20.6523 39.4336 20.1484V16.3398H38.5195V15.8652L39.4395 15.4844L39.8262 14.0898H40.4121V15.5781H42.293V16.3398H40.4121V20.1191C40.4121 20.5215 40.5039 20.8223 40.6875 21.0215C40.875 21.2207 41.123 21.3203 41.4316 21.3203ZM44.6074 12.8828V15.6074C44.6074 15.7637 44.6035 15.9219 44.5957 16.082C44.5879 16.2383 44.5742 16.3828 44.5547 16.5156H44.6191C44.752 16.2891 44.9199 16.0996 45.123 15.9473C45.3301 15.791 45.5645 15.6738 45.8262 15.5957C46.0879 15.5137 46.3652 15.4727 46.6582 15.4727C47.1738 15.4727 47.6035 15.5547 47.9473 15.7188C48.2949 15.8828 48.5547 16.1367 48.7266 16.4805C48.9023 16.8242 48.9902 17.2695 48.9902 17.8164V22H48.0293V17.8809C48.0293 17.3457 47.9062 16.9453 47.6602 16.6797C47.418 16.4141 47.0449 16.2812 46.541 16.2812C46.0645 16.2812 45.6836 16.373 45.3984 16.5566C45.1172 16.7363 44.9141 17.002 44.7891 17.3535C44.668 17.7051 44.6074 18.1348 44.6074 18.6426V22H43.6348V12.8828H44.6074ZM53.9121 15.4609C54.041 15.4609 54.1758 15.4688 54.3164 15.4844C54.457 15.4961 54.582 15.5137 54.6914 15.5371L54.5684 16.4395C54.4629 16.4121 54.3457 16.3906 54.2168 16.375C54.0879 16.3594 53.9668 16.3516 53.8535 16.3516C53.5957 16.3516 53.3516 16.4043 53.1211 16.5098C52.8945 16.6113 52.6953 16.7598 52.5234 16.9551C52.3516 17.1465 52.2168 17.3789 52.1191 17.6523C52.0215 17.9219 51.9727 18.2227 51.9727 18.5547V22H50.9941V15.5781H51.8027L51.9082 16.7617H51.9492C52.082 16.5234 52.2422 16.3066 52.4297 16.1113C52.6172 15.9121 52.834 15.7539 53.0801 15.6367C53.3301 15.5195 53.6074 15.4609 53.9121 15.4609ZM58.377 15.4609C58.9238 15.4609 59.3926 15.582 59.7832 15.8242C60.1738 16.0664 60.4727 16.4062 60.6797 16.8438C60.8867 17.2773 60.9902 17.7852 60.9902 18.3672V18.9707H56.5547C56.5664 19.7246 56.7539 20.2988 57.1172 20.6934C57.4805 21.0879 57.9922 21.2852 58.6523 21.2852C59.0586 21.2852 59.418 21.248 59.7305 21.1738C60.043 21.0996 60.3672 20.9902 60.7031 20.8457V21.7012C60.3789 21.8457 60.0566 21.9512 59.7363 22.0176C59.4199 22.084 59.0449 22.1172 58.6113 22.1172C57.9941 22.1172 57.4551 21.9922 56.9941 21.7422C56.5371 21.4883 56.1816 21.1172 55.9277 20.6289C55.6738 20.1406 55.5469 19.543 55.5469 18.8359C55.5469 18.1445 55.6621 17.5469 55.8926 17.043C56.127 16.5352 56.4551 16.1445 56.877 15.8711C57.3027 15.5977 57.8027 15.4609 58.377 15.4609ZM58.3652 16.2578C57.8457 16.2578 57.4316 16.4277 57.123 16.7676C56.8145 17.1074 56.6309 17.582 56.5723 18.1914H59.9707C59.9668 17.8086 59.9062 17.4727 59.7891 17.1836C59.6758 16.8906 59.502 16.6641 59.2676 16.5039C59.0332 16.3398 58.7324 16.2578 58.3652 16.2578ZM65.0449 15.4727C65.8105 15.4727 66.3789 15.6445 66.75 15.9883C67.1211 16.332 67.3066 16.8809 67.3066 17.6348V22H66.5977L66.4102 21.0508H66.3633C66.1836 21.2852 65.9961 21.4824 65.8008 21.6426C65.6055 21.7988 65.3789 21.918 65.1211 22C64.8672 22.0781 64.5547 22.1172 64.1836 22.1172C63.793 22.1172 63.4453 22.0488 63.1406 21.9121C62.8398 21.7754 62.6016 21.5684 62.4258 21.291C62.2539 21.0137 62.168 20.6621 62.168 20.2363C62.168 19.5957 62.4219 19.1035 62.9297 18.7598C63.4375 18.416 64.2109 18.2285 65.25 18.1973L66.3574 18.1504V17.7578C66.3574 17.2031 66.2383 16.8145 66 16.5918C65.7617 16.3691 65.4258 16.2578 64.9922 16.2578C64.6562 16.2578 64.3359 16.3066 64.0312 16.4043C63.7266 16.502 63.4375 16.6172 63.1641 16.75L62.8652 16.0117C63.1543 15.8633 63.4863 15.7363 63.8613 15.6309C64.2363 15.5254 64.6309 15.4727 65.0449 15.4727ZM66.3457 18.8359L65.3672 18.877C64.5664 18.9082 64.002 19.0391 63.6738 19.2695C63.3457 19.5 63.1816 19.8262 63.1816 20.248C63.1816 20.6152 63.293 20.8867 63.5156 21.0625C63.7383 21.2383 64.0332 21.3262 64.4004 21.3262C64.9707 21.3262 65.4375 21.168 65.8008 20.8516C66.1641 20.5352 66.3457 20.0605 66.3457 19.4277V18.8359ZM71.5957 22.1172C70.7832 22.1172 70.1387 21.8398 69.6621 21.2852C69.1895 20.7305 68.9531 19.9062 68.9531 18.8125C68.9531 17.707 69.1953 16.873 69.6797 16.3105C70.1641 15.7441 70.8086 15.4609 71.6133 15.4609C71.9531 15.4609 72.25 15.5059 72.5039 15.5957C72.7578 15.6855 72.9766 15.8066 73.1602 15.959C73.3438 16.1074 73.498 16.2773 73.623 16.4688H73.6934C73.6777 16.3477 73.6621 16.1816 73.6465 15.9707C73.6309 15.7598 73.623 15.5879 73.623 15.4551V12.8828H74.5957V22H73.8105L73.6641 21.0859H73.623C73.502 21.2773 73.3477 21.4512 73.1602 21.6074C72.9766 21.7637 72.7559 21.8887 72.498 21.9824C72.2441 22.0723 71.9434 22.1172 71.5957 22.1172ZM71.748 21.3086C72.4355 21.3086 72.9219 21.1133 73.207 20.7227C73.4922 20.332 73.6348 19.752 73.6348 18.9824V18.8066C73.6348 17.9902 73.498 17.3633 73.2246 16.9258C72.9551 16.4883 72.4629 16.2695 71.748 16.2695C71.1504 16.2695 70.7031 16.5 70.4062 16.9609C70.1094 17.418 69.9609 18.043 69.9609 18.8359C69.9609 19.625 70.1074 20.2344 70.4004 20.6641C70.6973 21.0938 71.1465 21.3086 71.748 21.3086ZM82.9629 22H82.0137V15.9297C82.0137 15.6992 82.0137 15.502 82.0137 15.3379C82.0176 15.1699 82.0215 15.0176 82.0254 14.8809C82.0332 14.7402 82.043 14.5977 82.0547 14.4531C81.9336 14.5781 81.8203 14.6855 81.7148 14.7754C81.6094 14.8613 81.4785 14.9688 81.3223 15.0977L80.3438 15.8828L79.834 15.2207L82.1543 13.4336H82.9629V22Z" fill="black"/>
<defs>
<filter id="filter0_d_20287_293" x="0" y="0" width="215" height="81" filterUnits="userSpaceOnUse" color-interpolation-filters="sRGB">
<feFlood flood-opacity="0" result="BackgroundImageFix"/>
<feColorMatrix in="SourceAlpha" type="matrix" values="0 0 0 0 0 0 0 0 0 0 0 0 0 0 0 0 0 0 127 0" result="hardAlpha"/>
<feOffset dx="1" dy="3"/>
<feGaussianBlur stdDeviation="4"/>
<feComposite in2="hardAlpha" operator="out"/>
<feColorMatrix type="matrix" values="0 0 0 0 0 0 0 0 0 0 0 0 0 0 0 0 0 0 0.25 0"/>
<feBlend mode="normal" in2="BackgroundImageFix" result="effect1_dropShadow_20287_293"/>
<feBlend mode="normal" in="SourceGraphic" in2="effect1_dropShadow_20287_293" result="shape"/>
</filter>
<filter id="filter1_d_20287_293" x="0" y="25" width="215" height="86" filterUnits="userSpaceOnUse" color-interpolation-filters="sRGB">
<feFlood flood-opacity="0" result="BackgroundImageFix"/>
<feColorMatrix in="SourceAlpha" type="matrix" values="0 0 0 0 0 0 0 0 0 0 0 0 0 0 0 0 0 0 127 0" result="hardAlpha"/>
<feOffset dx="1" dy="3"/>
<feGaussianBlur stdDeviation="4"/>
<feComposite in2="hardAlpha" operator="out"/>
<feColorMatrix type="matrix" values="0 0 0 0 0 0 0 0 0 0 0 0 0 0 0 0 0 0 0.25 0"/>
<feBlend mode="normal" in2="BackgroundImageFix" result="effect1_dropShadow_20287_293"/>
<feBlend mode="normal" in="SourceGraphic" in2="effect1_dropShadow_20287_293" result="shape"/>
</filter>
</defs>
</svg>
