<svg width="99" height="40" viewBox="0 0 99 40" fill="none" xmlns="http://www.w3.org/2000/svg">
<g filter="url(#filter0_d_20287_311)">
<rect x="4" y="2" width="91" height="32" rx="5" fill="white"/>
</g>
<path d="M11.1 21.07C10.6133 21.07 10.1733 20.9867 9.78 20.82C9.39333 20.6533 9.08667 20.4133 8.86 20.1C8.63333 19.7867 8.51667 19.4167 8.51 18.99H10.01C10.03 19.2767 10.13 19.5033 10.31 19.67C10.4967 19.8367 10.75 19.92 11.07 19.92C11.3967 19.92 11.6533 19.8433 11.84 19.69C12.0267 19.53 12.12 19.3233 12.12 19.07C12.12 18.8633 12.0567 18.6933 11.93 18.56C11.8033 18.4267 11.6433 18.3233 11.45 18.25C11.2633 18.17 11.0033 18.0833 10.67 17.99C10.2167 17.8567 9.84667 17.7267 9.56 17.6C9.28 17.4667 9.03667 17.27 8.83 17.01C8.63 16.7433 8.53 16.39 8.53 15.95C8.53 15.5367 8.63333 15.1767 8.84 14.87C9.04667 14.5633 9.33667 14.33 9.71 14.17C10.0833 14.0033 10.51 13.92 10.99 13.92C11.71 13.92 12.2933 14.0967 12.74 14.45C13.1933 14.7967 13.4433 15.2833 13.49 15.91H11.95C11.9367 15.67 11.8333 15.4733 11.64 15.32C11.4533 15.16 11.2033 15.08 10.89 15.08C10.6167 15.08 10.3967 15.15 10.23 15.29C10.07 15.43 9.99 15.6333 9.99 15.9C9.99 16.0867 10.05 16.2433 10.17 16.37C10.2967 16.49 10.45 16.59 10.63 16.67C10.8167 16.7433 11.0767 16.83 11.41 16.93C11.8633 17.0633 12.2333 17.1967 12.52 17.33C12.8067 17.4633 13.0533 17.6633 13.26 17.93C13.4667 18.1967 13.57 18.5467 13.57 18.98C13.57 19.3533 13.4733 19.7 13.28 20.02C13.0867 20.34 12.8033 20.5967 12.43 20.79C12.0567 20.9767 11.6133 21.07 11.1 21.07ZM19.9338 18.11C19.9338 18.31 19.9204 18.49 19.8938 18.65H15.8438C15.8771 19.05 16.0171 19.3633 16.2638 19.59C16.5104 19.8167 16.8138 19.93 17.1738 19.93C17.6938 19.93 18.0638 19.7067 18.2838 19.26H19.7938C19.6338 19.7933 19.3271 20.2333 18.8738 20.58C18.4204 20.92 17.8638 21.09 17.2038 21.09C16.6704 21.09 16.1904 20.9733 15.7638 20.74C15.3438 20.5 15.0138 20.1633 14.7738 19.73C14.5404 19.2967 14.4237 18.7967 14.4237 18.23C14.4237 17.6567 14.5404 17.1533 14.7738 16.72C15.0071 16.2867 15.3338 15.9533 15.7538 15.72C16.1738 15.4867 16.6571 15.37 17.2038 15.37C17.7304 15.37 18.2004 15.4833 18.6138 15.71C19.0338 15.9367 19.3571 16.26 19.5838 16.68C19.8171 17.0933 19.9338 17.57 19.9338 18.11ZM18.4838 17.71C18.4771 17.35 18.3471 17.0633 18.0938 16.85C17.8404 16.63 17.5304 16.52 17.1638 16.52C16.8171 16.52 16.5238 16.6267 16.2838 16.84C16.0504 17.0467 15.9071 17.3367 15.8538 17.71H18.4838ZM22.3556 13.6V21H20.9556V13.6H22.3556ZM28.8888 18.11C28.8888 18.31 28.8755 18.49 28.8488 18.65H24.7988C24.8322 19.05 24.9722 19.3633 25.2188 19.59C25.4655 19.8167 25.7688 19.93 26.1288 19.93C26.6488 19.93 27.0188 19.7067 27.2388 19.26H28.7488C28.5888 19.7933 28.2822 20.2333 27.8288 20.58C27.3755 20.92 26.8188 21.09 26.1588 21.09C25.6255 21.09 25.1455 20.9733 24.7188 20.74C24.2988 20.5 23.9688 20.1633 23.7288 19.73C23.4955 19.2967 23.3788 18.7967 23.3788 18.23C23.3788 17.6567 23.4955 17.1533 23.7288 16.72C23.9622 16.2867 24.2888 15.9533 24.7088 15.72C25.1288 15.4867 25.6122 15.37 26.1588 15.37C26.6855 15.37 27.1555 15.4833 27.5688 15.71C27.9888 15.9367 28.3122 16.26 28.5388 16.68C28.7722 17.0933 28.8888 17.57 28.8888 18.11ZM27.4388 17.71C27.4322 17.35 27.3022 17.0633 27.0488 16.85C26.7955 16.63 26.4855 16.52 26.1188 16.52C25.7722 16.52 25.4788 16.6267 25.2388 16.84C25.0055 17.0467 24.8622 17.3367 24.8088 17.71H27.4388ZM29.5507 18.23C29.5507 17.6567 29.6674 17.1567 29.9007 16.73C30.134 16.2967 30.4574 15.9633 30.8707 15.73C31.284 15.49 31.7574 15.37 32.2907 15.37C32.9774 15.37 33.544 15.5433 33.9907 15.89C34.444 16.23 34.7474 16.71 34.9007 17.33H33.3907C33.3107 17.09 33.174 16.9033 32.9807 16.77C32.794 16.63 32.5607 16.56 32.2807 16.56C31.8807 16.56 31.564 16.7067 31.3307 17C31.0974 17.2867 30.9807 17.6967 30.9807 18.23C30.9807 18.7567 31.0974 19.1667 31.3307 19.46C31.564 19.7467 31.8807 19.89 32.2807 19.89C32.8474 19.89 33.2174 19.6367 33.3907 19.13H34.9007C34.7474 19.73 34.444 20.2067 33.9907 20.56C33.5374 20.9133 32.9707 21.09 32.2907 21.09C31.7574 21.09 31.284 20.9733 30.8707 20.74C30.4574 20.5 30.134 20.1667 29.9007 19.74C29.6674 19.3067 29.5507 18.8033 29.5507 18.23ZM37.5563 16.61V19.29C37.5563 19.4767 37.5997 19.6133 37.6863 19.7C37.7797 19.78 37.933 19.82 38.1463 19.82H38.7963V21H37.9163C36.7363 21 36.1463 20.4267 36.1463 19.28V16.61H35.4863V15.46H36.1463V14.09H37.5563V15.46H38.7963V16.61H37.5563ZM47.2761 16.18C47.2761 16.5533 47.1861 16.9033 47.0061 17.23C46.8328 17.5567 46.5561 17.82 46.1761 18.02C45.8028 18.22 45.3294 18.32 44.7561 18.32H43.5861V21H42.1861V14.02H44.7561C45.2961 14.02 45.7561 14.1133 46.1361 14.3C46.5161 14.4867 46.7994 14.7433 46.9861 15.07C47.1794 15.3967 47.2761 15.7667 47.2761 16.18ZM44.6961 17.19C45.0828 17.19 45.3694 17.1033 45.5561 16.93C45.7428 16.75 45.8361 16.5 45.8361 16.18C45.8361 15.5 45.4561 15.16 44.6961 15.16H43.5861V17.19H44.6961ZM49.6701 16.32C49.8501 16.0267 50.0834 15.7967 50.3701 15.63C50.6634 15.4633 50.9967 15.38 51.3701 15.38V16.85H51.0001C50.5601 16.85 50.2267 16.9533 50.0001 17.16C49.7801 17.3667 49.6701 17.7267 49.6701 18.24V21H48.2701V15.46H49.6701V16.32ZM54.773 21.09C54.2397 21.09 53.7597 20.9733 53.333 20.74C52.9064 20.5 52.5697 20.1633 52.323 19.73C52.083 19.2967 51.963 18.7967 51.963 18.23C51.963 17.6633 52.0864 17.1633 52.333 16.73C52.5864 16.2967 52.9297 15.9633 53.363 15.73C53.7964 15.49 54.2797 15.37 54.813 15.37C55.3464 15.37 55.8297 15.49 56.263 15.73C56.6964 15.9633 57.0364 16.2967 57.283 16.73C57.5364 17.1633 57.663 17.6633 57.663 18.23C57.663 18.7967 57.533 19.2967 57.273 19.73C57.0197 20.1633 56.673 20.5 56.233 20.74C55.7997 20.9733 55.313 21.09 54.773 21.09ZM54.773 19.87C55.0264 19.87 55.263 19.81 55.483 19.69C55.7097 19.5633 55.8897 19.3767 56.023 19.13C56.1564 18.8833 56.223 18.5833 56.223 18.23C56.223 17.7033 56.083 17.3 55.803 17.02C55.5297 16.7333 55.193 16.59 54.793 16.59C54.393 16.59 54.0564 16.7333 53.783 17.02C53.5164 17.3 53.383 17.7033 53.383 18.23C53.383 18.7567 53.513 19.1633 53.773 19.45C54.0397 19.73 54.373 19.87 54.773 19.87ZM58.33 18.23C58.33 17.6567 58.4467 17.1567 58.68 16.73C58.9133 16.2967 59.2367 15.9633 59.65 15.73C60.0633 15.49 60.5367 15.37 61.07 15.37C61.7567 15.37 62.3233 15.5433 62.77 15.89C63.2233 16.23 63.5267 16.71 63.68 17.33H62.17C62.09 17.09 61.9533 16.9033 61.76 16.77C61.5733 16.63 61.34 16.56 61.06 16.56C60.66 16.56 60.3433 16.7067 60.11 17C59.8767 17.2867 59.76 17.6967 59.76 18.23C59.76 18.7567 59.8767 19.1667 60.11 19.46C60.3433 19.7467 60.66 19.89 61.06 19.89C61.6267 19.89 61.9967 19.6367 62.17 19.13H63.68C63.5267 19.73 63.2233 20.2067 62.77 20.56C62.3167 20.9133 61.75 21.09 61.07 21.09C60.5367 21.09 60.0633 20.9733 59.65 20.74C59.2367 20.5 58.9133 20.1667 58.68 19.74C58.4467 19.3067 58.33 18.8033 58.33 18.23ZM69.8556 18.11C69.8556 18.31 69.8423 18.49 69.8156 18.65H65.7656C65.799 19.05 65.939 19.3633 66.1856 19.59C66.4323 19.8167 66.7356 19.93 67.0956 19.93C67.6156 19.93 67.9856 19.7067 68.2056 19.26H69.7156C69.5556 19.7933 69.249 20.2333 68.7956 20.58C68.3423 20.92 67.7856 21.09 67.1256 21.09C66.5923 21.09 66.1123 20.9733 65.6856 20.74C65.2656 20.5 64.9356 20.1633 64.6956 19.73C64.4623 19.2967 64.3456 18.7967 64.3456 18.23C64.3456 17.6567 64.4623 17.1533 64.6956 16.72C64.929 16.2867 65.2556 15.9533 65.6756 15.72C66.0956 15.4867 66.579 15.37 67.1256 15.37C67.6523 15.37 68.1223 15.4833 68.5356 15.71C68.9556 15.9367 69.279 16.26 69.5056 16.68C69.739 17.0933 69.8556 17.57 69.8556 18.11ZM68.4056 17.71C68.399 17.35 68.269 17.0633 68.0156 16.85C67.7623 16.63 67.4523 16.52 67.0856 16.52C66.739 16.52 66.4456 16.6267 66.2056 16.84C65.9723 17.0467 65.829 17.3367 65.7756 17.71H68.4056ZM72.9975 21.09C72.5442 21.09 72.1375 21.01 71.7775 20.85C71.4175 20.6833 71.1308 20.46 70.9175 20.18C70.7108 19.9 70.5975 19.59 70.5775 19.25H71.9875C72.0142 19.4633 72.1175 19.64 72.2975 19.78C72.4842 19.92 72.7142 19.99 72.9875 19.99C73.2542 19.99 73.4608 19.9367 73.6075 19.83C73.7608 19.7233 73.8375 19.5867 73.8375 19.42C73.8375 19.24 73.7442 19.1067 73.5575 19.02C73.3775 18.9267 73.0875 18.8267 72.6875 18.72C72.2742 18.62 71.9342 18.5167 71.6675 18.41C71.4075 18.3033 71.1808 18.14 70.9875 17.92C70.8008 17.7 70.7075 17.4033 70.7075 17.03C70.7075 16.7233 70.7942 16.4433 70.9675 16.19C71.1475 15.9367 71.4008 15.7367 71.7275 15.59C72.0608 15.4433 72.4508 15.37 72.8975 15.37C73.5575 15.37 74.0842 15.5367 74.4775 15.87C74.8708 16.1967 75.0875 16.64 75.1275 17.2H73.7875C73.7675 16.98 73.6742 16.8067 73.5075 16.68C73.3475 16.5467 73.1308 16.48 72.8575 16.48C72.6042 16.48 72.4075 16.5267 72.2675 16.62C72.1342 16.7133 72.0675 16.8433 72.0675 17.01C72.0675 17.1967 72.1608 17.34 72.3475 17.44C72.5342 17.5333 72.8242 17.63 73.2175 17.73C73.6175 17.83 73.9475 17.9333 74.2075 18.04C74.4675 18.1467 74.6908 18.3133 74.8775 18.54C75.0708 18.76 75.1708 19.0533 75.1775 19.42C75.1775 19.74 75.0875 20.0267 74.9075 20.28C74.7342 20.5333 74.4808 20.7333 74.1475 20.88C73.8208 21.02 73.4375 21.09 72.9975 21.09Z" fill="black"/>
<path d="M87.9884 15L84.0926 18.6329L80.1969 15L79 16.1184L84.0926 20.8776L89.1853 16.1184L87.9884 15Z" fill="black"/>
<defs>
<filter id="filter0_d_20287_311" x="0" y="0" width="99" height="40" filterUnits="userSpaceOnUse" color-interpolation-filters="sRGB">
<feFlood flood-opacity="0" result="BackgroundImageFix"/>
<feColorMatrix in="SourceAlpha" type="matrix" values="0 0 0 0 0 0 0 0 0 0 0 0 0 0 0 0 0 0 127 0" result="hardAlpha"/>
<feOffset dy="2"/>
<feGaussianBlur stdDeviation="2"/>
<feComposite in2="hardAlpha" operator="out"/>
<feColorMatrix type="matrix" values="0 0 0 0 0 0 0 0 0 0 0 0 0 0 0 0 0 0 0.25 0"/>
<feBlend mode="normal" in2="BackgroundImageFix" result="effect1_dropShadow_20287_311"/>
<feBlend mode="normal" in="SourceGraphic" in2="effect1_dropShadow_20287_311" result="shape"/>
</filter>
</defs>
</svg>
