<svg width="99" height="40" viewBox="0 0 99 40" fill="none" xmlns="http://www.w3.org/2000/svg">
<g filter="url(#filter0_d_20287_305)">
<rect x="4" y="2" width="91" height="32" rx="5" fill="white"/>
</g>
<path d="M11.1 21.07C10.6133 21.07 10.1733 20.9867 9.78 20.82C9.39333 20.6533 9.08667 20.4133 8.86 20.1C8.63333 19.7867 8.51667 19.4167 8.51 18.99H10.01C10.03 19.2767 10.13 19.5033 10.31 19.67C10.4967 19.8367 10.75 19.92 11.07 19.92C11.3967 19.92 11.6533 19.8433 11.84 19.69C12.0267 19.53 12.12 19.3233 12.12 19.07C12.12 18.8633 12.0567 18.6933 11.93 18.56C11.8033 18.4267 11.6433 18.3233 11.45 18.25C11.2633 18.17 11.0033 18.0833 10.67 17.99C10.2167 17.8567 9.84667 17.7267 9.56 17.6C9.28 17.4667 9.03667 17.27 8.83 17.01C8.63 16.7433 8.53 16.39 8.53 15.95C8.53 15.5367 8.63333 15.1767 8.84 14.87C9.04667 14.5633 9.33667 14.33 9.71 14.17C10.0833 14.0033 10.51 13.92 10.99 13.92C11.71 13.92 12.2933 14.0967 12.74 14.45C13.1933 14.7967 13.4433 15.2833 13.49 15.91H11.95C11.9367 15.67 11.8333 15.4733 11.64 15.32C11.4533 15.16 11.2033 15.08 10.89 15.08C10.6167 15.08 10.3967 15.15 10.23 15.29C10.07 15.43 9.99 15.6333 9.99 15.9C9.99 16.0867 10.05 16.2433 10.17 16.37C10.2967 16.49 10.45 16.59 10.63 16.67C10.8167 16.7433 11.0767 16.83 11.41 16.93C11.8633 17.0633 12.2333 17.1967 12.52 17.33C12.8067 17.4633 13.0533 17.6633 13.26 17.93C13.4667 18.1967 13.57 18.5467 13.57 18.98C13.57 19.3533 13.4733 19.7 13.28 20.02C13.0867 20.34 12.8033 20.5967 12.43 20.79C12.0567 20.9767 11.6133 21.07 11.1 21.07ZM19.9338 18.11C19.9338 18.31 19.9204 18.49 19.8938 18.65H15.8438C15.8771 19.05 16.0171 19.3633 16.2638 19.59C16.5104 19.8167 16.8138 19.93 17.1738 19.93C17.6938 19.93 18.0638 19.7067 18.2838 19.26H19.7938C19.6338 19.7933 19.3271 20.2333 18.8738 20.58C18.4204 20.92 17.8638 21.09 17.2038 21.09C16.6704 21.09 16.1904 20.9733 15.7638 20.74C15.3438 20.5 15.0138 20.1633 14.7738 19.73C14.5404 19.2967 14.4237 18.7967 14.4237 18.23C14.4237 17.6567 14.5404 17.1533 14.7738 16.72C15.0071 16.2867 15.3338 15.9533 15.7538 15.72C16.1738 15.4867 16.6571 15.37 17.2038 15.37C17.7304 15.37 18.2004 15.4833 18.6138 15.71C19.0338 15.9367 19.3571 16.26 19.5838 16.68C19.8171 17.0933 19.9338 17.57 19.9338 18.11ZM18.4838 17.71C18.4771 17.35 18.3471 17.0633 18.0938 16.85C17.8404 16.63 17.5304 16.52 17.1638 16.52C16.8171 16.52 16.5238 16.6267 16.2838 16.84C16.0504 17.0467 15.9071 17.3367 15.8538 17.71H18.4838ZM22.3556 13.6V21H20.9556V13.6H22.3556ZM28.8888 18.11C28.8888 18.31 28.8755 18.49 28.8488 18.65H24.7988C24.8322 19.05 24.9722 19.3633 25.2188 19.59C25.4655 19.8167 25.7688 19.93 26.1288 19.93C26.6488 19.93 27.0188 19.7067 27.2388 19.26H28.7488C28.5888 19.7933 28.2822 20.2333 27.8288 20.58C27.3755 20.92 26.8188 21.09 26.1588 21.09C25.6255 21.09 25.1455 20.9733 24.7188 20.74C24.2988 20.5 23.9688 20.1633 23.7288 19.73C23.4955 19.2967 23.3788 18.7967 23.3788 18.23C23.3788 17.6567 23.4955 17.1533 23.7288 16.72C23.9622 16.2867 24.2888 15.9533 24.7088 15.72C25.1288 15.4867 25.6122 15.37 26.1588 15.37C26.6855 15.37 27.1555 15.4833 27.5688 15.71C27.9888 15.9367 28.3122 16.26 28.5388 16.68C28.7722 17.0933 28.8888 17.57 28.8888 18.11ZM27.4388 17.71C27.4322 17.35 27.3022 17.0633 27.0488 16.85C26.7955 16.63 26.4855 16.52 26.1188 16.52C25.7722 16.52 25.4788 16.6267 25.2388 16.84C25.0055 17.0467 24.8622 17.3367 24.8088 17.71H27.4388ZM29.5507 18.23C29.5507 17.6567 29.6674 17.1567 29.9007 16.73C30.134 16.2967 30.4574 15.9633 30.8707 15.73C31.284 15.49 31.7574 15.37 32.2907 15.37C32.9774 15.37 33.544 15.5433 33.9907 15.89C34.444 16.23 34.7474 16.71 34.9007 17.33H33.3907C33.3107 17.09 33.174 16.9033 32.9807 16.77C32.794 16.63 32.5607 16.56 32.2807 16.56C31.8807 16.56 31.564 16.7067 31.3307 17C31.0974 17.2867 30.9807 17.6967 30.9807 18.23C30.9807 18.7567 31.0974 19.1667 31.3307 19.46C31.564 19.7467 31.8807 19.89 32.2807 19.89C32.8474 19.89 33.2174 19.6367 33.3907 19.13H34.9007C34.7474 19.73 34.444 20.2067 33.9907 20.56C33.5374 20.9133 32.9707 21.09 32.2907 21.09C31.7574 21.09 31.284 20.9733 30.8707 20.74C30.4574 20.5 30.134 20.1667 29.9007 19.74C29.6674 19.3067 29.5507 18.8033 29.5507 18.23ZM37.5563 16.61V19.29C37.5563 19.4767 37.5997 19.6133 37.6863 19.7C37.7797 19.78 37.933 19.82 38.1463 19.82H38.7963V21H37.9163C36.7363 21 36.1463 20.4267 36.1463 19.28V16.61H35.4863V15.46H36.1463V14.09H37.5563V15.46H38.7963V16.61H37.5563ZM41.8461 17.5C41.8461 16.8133 41.9994 16.2 42.3061 15.66C42.6194 15.1133 43.0428 14.69 43.5761 14.39C44.1161 14.0833 44.7194 13.93 45.3861 13.93C46.1661 13.93 46.8494 14.13 47.4361 14.53C48.0228 14.93 48.4328 15.4833 48.6661 16.19H47.0561C46.8961 15.8567 46.6694 15.6067 46.3761 15.44C46.0894 15.2733 45.7561 15.19 45.3761 15.19C44.9694 15.19 44.6061 15.2867 44.2861 15.48C43.9728 15.6667 43.7261 15.9333 43.5461 16.28C43.3728 16.6267 43.2861 17.0333 43.2861 17.5C43.2861 17.96 43.3728 18.3667 43.5461 18.72C43.7261 19.0667 43.9728 19.3367 44.2861 19.53C44.6061 19.7167 44.9694 19.81 45.3761 19.81C45.7561 19.81 46.0894 19.7267 46.3761 19.56C46.6694 19.3867 46.8961 19.1333 47.0561 18.8H48.6661C48.4328 19.5133 48.0228 20.07 47.4361 20.47C46.8561 20.8633 46.1728 21.06 45.3861 21.06C44.7194 21.06 44.1161 20.91 43.5761 20.61C43.0428 20.3033 42.6194 19.88 42.3061 19.34C41.9994 18.8 41.8461 18.1867 41.8461 17.5ZM49.5019 18.21C49.5019 17.65 49.6119 17.1533 49.8319 16.72C50.0585 16.2867 50.3619 15.9533 50.7419 15.72C51.1285 15.4867 51.5585 15.37 52.0319 15.37C52.4452 15.37 52.8052 15.4533 53.1119 15.62C53.4252 15.7867 53.6752 15.9967 53.8619 16.25V15.46H55.2719V21H53.8619V20.19C53.6819 20.45 53.4319 20.6667 53.1119 20.84C52.7985 21.0067 52.4352 21.09 52.0219 21.09C51.5552 21.09 51.1285 20.97 50.7419 20.73C50.3619 20.49 50.0585 20.1533 49.8319 19.72C49.6119 19.28 49.5019 18.7767 49.5019 18.21ZM53.8619 18.23C53.8619 17.89 53.7952 17.6 53.6619 17.36C53.5285 17.1133 53.3485 16.9267 53.1219 16.8C52.8952 16.6667 52.6519 16.6 52.3919 16.6C52.1319 16.6 51.8919 16.6633 51.6719 16.79C51.4519 16.9167 51.2719 17.1033 51.1319 17.35C50.9985 17.59 50.9319 17.8767 50.9319 18.21C50.9319 18.5433 50.9985 18.8367 51.1319 19.09C51.2719 19.3367 51.4519 19.5267 51.6719 19.66C51.8985 19.7933 52.1385 19.86 52.3919 19.86C52.6519 19.86 52.8952 19.7967 53.1219 19.67C53.3485 19.5367 53.5285 19.35 53.6619 19.11C53.7952 18.8633 53.8619 18.57 53.8619 18.23ZM58.2692 16.61V19.29C58.2692 19.4767 58.3126 19.6133 58.3992 19.7C58.4926 19.78 58.6459 19.82 58.8592 19.82H59.5092V21H58.6292C57.4492 21 56.8592 20.4267 56.8592 19.28V16.61H56.1992V15.46H56.8592V14.09H58.2692V15.46H59.5092V16.61H58.2692ZM65.6662 18.11C65.6662 18.31 65.6528 18.49 65.6262 18.65H61.5762C61.6095 19.05 61.7495 19.3633 61.9962 19.59C62.2428 19.8167 62.5462 19.93 62.9062 19.93C63.4262 19.93 63.7962 19.7067 64.0162 19.26H65.5262C65.3662 19.7933 65.0595 20.2333 64.6062 20.58C64.1528 20.92 63.5962 21.09 62.9362 21.09C62.4028 21.09 61.9228 20.9733 61.4962 20.74C61.0762 20.5 60.7462 20.1633 60.5062 19.73C60.2728 19.2967 60.1562 18.7967 60.1562 18.23C60.1562 17.6567 60.2728 17.1533 60.5062 16.72C60.7395 16.2867 61.0662 15.9533 61.4862 15.72C61.9062 15.4867 62.3895 15.37 62.9362 15.37C63.4628 15.37 63.9328 15.4833 64.3462 15.71C64.7662 15.9367 65.0895 16.26 65.3162 16.68C65.5495 17.0933 65.6662 17.57 65.6662 18.11ZM64.2162 17.71C64.2095 17.35 64.0795 17.0633 63.8262 16.85C63.5728 16.63 63.2628 16.52 62.8962 16.52C62.5495 16.52 62.2562 16.6267 62.0162 16.84C61.7828 17.0467 61.6395 17.3367 61.5862 17.71H64.2162ZM68.858 15.37C69.2714 15.37 69.6347 15.4533 69.948 15.62C70.2614 15.78 70.508 15.99 70.688 16.25V15.46H72.098V21.04C72.098 21.5533 71.9947 22.01 71.788 22.41C71.5814 22.8167 71.2714 23.1367 70.858 23.37C70.4447 23.61 69.9447 23.73 69.358 23.73C68.5714 23.73 67.9247 23.5467 67.418 23.18C66.918 22.8133 66.6347 22.3133 66.568 21.68H67.958C68.0314 21.9333 68.188 22.1333 68.428 22.28C68.6747 22.4333 68.9714 22.51 69.318 22.51C69.7247 22.51 70.0547 22.3867 70.308 22.14C70.5614 21.9 70.688 21.5333 70.688 21.04V20.18C70.508 20.44 70.258 20.6567 69.938 20.83C69.6247 21.0033 69.2647 21.09 68.858 21.09C68.3914 21.09 67.9647 20.97 67.578 20.73C67.1914 20.49 66.8847 20.1533 66.658 19.72C66.438 19.28 66.328 18.7767 66.328 18.21C66.328 17.65 66.438 17.1533 66.658 16.72C66.8847 16.2867 67.188 15.9533 67.568 15.72C67.9547 15.4867 68.3847 15.37 68.858 15.37ZM70.688 18.23C70.688 17.89 70.6214 17.6 70.488 17.36C70.3547 17.1133 70.1747 16.9267 69.948 16.8C69.7214 16.6667 69.478 16.6 69.218 16.6C68.958 16.6 68.718 16.6633 68.498 16.79C68.278 16.9167 68.098 17.1033 67.958 17.35C67.8247 17.59 67.758 17.8767 67.758 18.21C67.758 18.5433 67.8247 18.8367 67.958 19.09C68.098 19.3367 68.278 19.5267 68.498 19.66C68.7247 19.7933 68.9647 19.86 69.218 19.86C69.478 19.86 69.7214 19.7967 69.948 19.67C70.1747 19.5367 70.3547 19.35 70.488 19.11C70.6214 18.8633 70.688 18.57 70.688 18.23Z" fill="black"/>
<path d="M87.9884 15L84.0926 18.6329L80.1969 15L79 16.1184L84.0926 20.8776L89.1853 16.1184L87.9884 15Z" fill="black"/>
<defs>
<filter id="filter0_d_20287_305" x="0" y="0" width="99" height="40" filterUnits="userSpaceOnUse" color-interpolation-filters="sRGB">
<feFlood flood-opacity="0" result="BackgroundImageFix"/>
<feColorMatrix in="SourceAlpha" type="matrix" values="0 0 0 0 0 0 0 0 0 0 0 0 0 0 0 0 0 0 127 0" result="hardAlpha"/>
<feOffset dy="2"/>
<feGaussianBlur stdDeviation="2"/>
<feComposite in2="hardAlpha" operator="out"/>
<feColorMatrix type="matrix" values="0 0 0 0 0 0 0 0 0 0 0 0 0 0 0 0 0 0 0.25 0"/>
<feBlend mode="normal" in2="BackgroundImageFix" result="effect1_dropShadow_20287_305"/>
<feBlend mode="normal" in="SourceGraphic" in2="effect1_dropShadow_20287_305" result="shape"/>
</filter>
</defs>
</svg>
