<svg width="215" height="111" viewBox="0 0 215 111" fill="none" xmlns="http://www.w3.org/2000/svg">
<g opacity="0.5" filter="url(#filter0_d_20287_299)">
<rect x="7" y="5" width="199" height="64.3229" rx="10" fill="black" fill-opacity="0.05" shape-rendering="crispEdges"/>
<rect x="7.05" y="5.05" width="198.9" height="64.2229" rx="9.95" stroke="#333333" stroke-width="0.1" shape-rendering="crispEdges"/>
</g>
<rect x="7" y="29.7393" width="199" height="69.2708" rx="10" fill="#FAFAFA"/>
<g opacity="0.5" filter="url(#filter1_d_20287_299)">
<rect x="7" y="29.7393" width="199" height="69.2708" rx="10" fill="white"/>
<rect x="7.05" y="29.7893" width="198.9" height="69.1708" rx="9.95" stroke="#333333" stroke-width="0.1"/>
</g>
<path d="M19.9268 19.6787C19.9268 20.1865 19.7998 20.6201 19.5459 20.9795C19.2959 21.335 18.9443 21.6064 18.4912 21.7939C18.0381 21.9814 17.5049 22.0752 16.8916 22.0752C16.5674 22.0752 16.2607 22.0596 15.9717 22.0283C15.6826 21.9971 15.417 21.9521 15.1748 21.8936C14.9326 21.835 14.7197 21.7627 14.5361 21.6768V20.7217C14.8291 20.8428 15.1865 20.9561 15.6084 21.0615C16.0303 21.1631 16.4717 21.2139 16.9326 21.2139C17.3623 21.2139 17.7256 21.1572 18.0225 21.0439C18.3193 20.9268 18.5439 20.7607 18.6963 20.5459C18.8525 20.3271 18.9307 20.0654 18.9307 19.7607C18.9307 19.4678 18.8662 19.2236 18.7373 19.0283C18.6084 18.8291 18.3936 18.6494 18.0928 18.4893C17.7959 18.3252 17.3896 18.1514 16.874 17.9678C16.5107 17.8389 16.1904 17.6982 15.9131 17.5459C15.6357 17.3896 15.4033 17.2139 15.2158 17.0186C15.0283 16.8232 14.8857 16.5967 14.7881 16.3389C14.6943 16.0811 14.6475 15.7861 14.6475 15.4541C14.6475 14.9971 14.7627 14.6064 14.9932 14.2822C15.2275 13.9541 15.5498 13.7041 15.96 13.5322C16.374 13.3564 16.8486 13.2686 17.3838 13.2686C17.8408 13.2686 18.2627 13.3115 18.6494 13.3975C19.04 13.4834 19.3975 13.5986 19.7217 13.7432L19.4111 14.5986C19.1025 14.4697 18.7744 14.3623 18.4268 14.2764C18.083 14.1904 17.7275 14.1475 17.3604 14.1475C16.9932 14.1475 16.6826 14.2021 16.4287 14.3115C16.1787 14.417 15.9873 14.5674 15.8545 14.7627C15.7217 14.958 15.6553 15.1904 15.6553 15.46C15.6553 15.7607 15.7178 16.0107 15.8428 16.21C15.9717 16.4092 16.1748 16.5869 16.4521 16.7432C16.7334 16.8955 17.1045 17.0557 17.5654 17.2236C18.0693 17.4072 18.4971 17.6025 18.8486 17.8096C19.2002 18.0127 19.4678 18.2627 19.6514 18.5596C19.835 18.8525 19.9268 19.2256 19.9268 19.6787ZM26.835 15.5361V21.958H26.0381L25.8975 21.0557H25.8447C25.7119 21.2783 25.54 21.4658 25.3291 21.6182C25.1182 21.7705 24.8799 21.8838 24.6143 21.958C24.3525 22.0361 24.0732 22.0752 23.7764 22.0752C23.2686 22.0752 22.8428 21.9932 22.499 21.8291C22.1553 21.665 21.8955 21.4111 21.7197 21.0674C21.5479 20.7236 21.4619 20.2822 21.4619 19.7432V15.5361H22.4463V19.6729C22.4463 20.208 22.5674 20.6084 22.8096 20.874C23.0518 21.1357 23.4209 21.2666 23.917 21.2666C24.3936 21.2666 24.7725 21.1768 25.0537 20.9971C25.3389 20.8174 25.5439 20.5537 25.6689 20.2061C25.7939 19.8545 25.8564 19.4248 25.8564 18.917V15.5361H26.835ZM29.8643 12.8408V15.1201C29.8643 15.3818 29.8564 15.6357 29.8408 15.8818C29.8291 16.1279 29.8193 16.3193 29.8115 16.4561H29.8643C30.04 16.167 30.2939 15.9229 30.626 15.7236C30.958 15.5244 31.3818 15.4248 31.8975 15.4248C32.7021 15.4248 33.3428 15.7041 33.8193 16.2627C34.2998 16.8174 34.54 17.6436 34.54 18.7412C34.54 19.4639 34.4307 20.0732 34.2119 20.5693C33.9932 21.0654 33.6846 21.4404 33.2861 21.6943C32.8877 21.9482 32.417 22.0752 31.874 22.0752C31.3662 22.0752 30.9482 21.9814 30.6201 21.7939C30.2959 21.6025 30.0459 21.3701 29.8701 21.0967H29.7939L29.5947 21.958H28.8916V12.8408H29.8643ZM31.7393 16.2393C31.2744 16.2393 30.9053 16.3311 30.6318 16.5146C30.3584 16.6943 30.1611 16.9678 30.04 17.335C29.9229 17.6982 29.8643 18.1592 29.8643 18.7178V18.7705C29.8643 19.5791 29.999 20.1982 30.2686 20.6279C30.5381 21.0537 31.0283 21.2666 31.7393 21.2666C32.3369 21.2666 32.7842 21.0479 33.0811 20.6104C33.3818 20.1729 33.5322 19.5479 33.5322 18.7354C33.5322 17.9072 33.3838 17.2842 33.0869 16.8662C32.7939 16.4482 32.3447 16.2393 31.7393 16.2393ZM39.5029 21.958V13.3916H40.499V21.958H39.5029ZM45.749 15.4189C46.5107 15.4189 47.0869 15.6064 47.4775 15.9814C47.8682 16.3525 48.0635 16.9502 48.0635 17.7744V21.958H47.1025V17.8389C47.1025 17.3037 46.9795 16.9033 46.7334 16.6377C46.4912 16.3721 46.1182 16.2393 45.6143 16.2393C44.9033 16.2393 44.4033 16.4404 44.1143 16.8428C43.8252 17.2451 43.6807 17.8291 43.6807 18.5947V21.958H42.708V15.5361H43.4932L43.6396 16.4619H43.6924C43.8291 16.2354 44.0029 16.0459 44.2139 15.8936C44.4248 15.7373 44.6611 15.6201 44.9229 15.542C45.1846 15.46 45.46 15.4189 45.749 15.4189ZM52.1416 21.2783C52.3018 21.2783 52.4658 21.2646 52.6338 21.2373C52.8018 21.21 52.9385 21.1768 53.0439 21.1377V21.8936C52.9307 21.9443 52.7725 21.9873 52.5693 22.0225C52.3701 22.0576 52.1748 22.0752 51.9834 22.0752C51.6436 22.0752 51.335 22.0166 51.0576 21.8994C50.7803 21.7783 50.5576 21.5752 50.3896 21.29C50.2256 21.0049 50.1436 20.6104 50.1436 20.1064V16.2979H49.2295V15.8232L50.1494 15.4424L50.5361 14.0479H51.1221V15.5361H53.0029V16.2979H51.1221V20.0771C51.1221 20.4795 51.2139 20.7803 51.3975 20.9795C51.585 21.1787 51.833 21.2783 52.1416 21.2783ZM56.8174 15.4189C57.3643 15.4189 57.833 15.54 58.2236 15.7822C58.6143 16.0244 58.9131 16.3643 59.1201 16.8018C59.3271 17.2354 59.4307 17.7432 59.4307 18.3252V18.9287H54.9951C55.0068 19.6826 55.1943 20.2568 55.5576 20.6514C55.9209 21.0459 56.4326 21.2432 57.0928 21.2432C57.499 21.2432 57.8584 21.2061 58.1709 21.1318C58.4834 21.0576 58.8076 20.9482 59.1436 20.8037V21.6592C58.8193 21.8037 58.4971 21.9092 58.1768 21.9756C57.8604 22.042 57.4854 22.0752 57.0518 22.0752C56.4346 22.0752 55.8955 21.9502 55.4346 21.7002C54.9775 21.4463 54.6221 21.0752 54.3682 20.5869C54.1143 20.0986 53.9873 19.501 53.9873 18.7939C53.9873 18.1025 54.1025 17.5049 54.333 17.001C54.5674 16.4932 54.8955 16.1025 55.3174 15.8291C55.7432 15.5557 56.2432 15.4189 56.8174 15.4189ZM56.8057 16.2158C56.2861 16.2158 55.8721 16.3857 55.5635 16.7256C55.2549 17.0654 55.0713 17.54 55.0127 18.1494H58.4111C58.4072 17.7666 58.3467 17.4307 58.2295 17.1416C58.1162 16.8486 57.9424 16.6221 57.708 16.4619C57.4736 16.2979 57.1729 16.2158 56.8057 16.2158ZM64.001 15.4189C64.1299 15.4189 64.2646 15.4268 64.4053 15.4424C64.5459 15.4541 64.6709 15.4717 64.7803 15.4951L64.6572 16.3975C64.5518 16.3701 64.4346 16.3486 64.3057 16.333C64.1768 16.3174 64.0557 16.3096 63.9424 16.3096C63.6846 16.3096 63.4404 16.3623 63.21 16.4678C62.9834 16.5693 62.7842 16.7178 62.6123 16.9131C62.4404 17.1045 62.3057 17.3369 62.208 17.6104C62.1104 17.8799 62.0615 18.1807 62.0615 18.5127V21.958H61.083V15.5361H61.8916L61.9971 16.7197H62.0381C62.1709 16.4814 62.3311 16.2646 62.5186 16.0693C62.7061 15.8701 62.9229 15.7119 63.1689 15.5947C63.4189 15.4775 63.6963 15.4189 64.001 15.4189ZM69.0107 15.4189C69.8115 15.4189 70.4502 15.6943 70.9268 16.2451C71.4033 16.7959 71.6416 17.624 71.6416 18.7295C71.6416 19.46 71.5322 20.0732 71.3135 20.5693C71.0947 21.0654 70.7861 21.4404 70.3877 21.6943C69.9932 21.9482 69.5264 22.0752 68.9873 22.0752C68.6475 22.0752 68.3486 22.0303 68.0908 21.9404C67.833 21.8506 67.6123 21.7295 67.4287 21.5771C67.2451 21.4248 67.0928 21.2588 66.9717 21.0791H66.9014C66.9131 21.2314 66.9268 21.415 66.9424 21.6299C66.9619 21.8447 66.9717 22.0322 66.9717 22.1924V24.8291H65.9932V15.5361H66.7959L66.9248 16.4854H66.9717C67.0967 16.29 67.249 16.1123 67.4287 15.9521C67.6084 15.7881 67.8271 15.6592 68.085 15.5654C68.3467 15.4678 68.6553 15.4189 69.0107 15.4189ZM68.8408 16.2393C68.3955 16.2393 68.0361 16.3252 67.7627 16.4971C67.4932 16.6689 67.2959 16.9268 67.1709 17.2705C67.0459 17.6104 66.9795 18.0381 66.9717 18.5537V18.7412C66.9717 19.2842 67.0303 19.7432 67.1475 20.1182C67.2686 20.4932 67.4658 20.7783 67.7393 20.9736C68.0166 21.1689 68.3877 21.2666 68.8525 21.2666C69.251 21.2666 69.583 21.1592 69.8486 20.9443C70.1143 20.7295 70.3115 20.4307 70.4404 20.0479C70.5732 19.6611 70.6396 19.2178 70.6396 18.7178C70.6396 17.96 70.4912 17.3584 70.1943 16.9131C69.9014 16.4639 69.4502 16.2393 68.8408 16.2393ZM76.2588 15.4189C76.3877 15.4189 76.5225 15.4268 76.6631 15.4424C76.8037 15.4541 76.9287 15.4717 77.0381 15.4951L76.915 16.3975C76.8096 16.3701 76.6924 16.3486 76.5635 16.333C76.4346 16.3174 76.3135 16.3096 76.2002 16.3096C75.9424 16.3096 75.6982 16.3623 75.4678 16.4678C75.2412 16.5693 75.042 16.7178 74.8701 16.9131C74.6982 17.1045 74.5635 17.3369 74.4658 17.6104C74.3682 17.8799 74.3193 18.1807 74.3193 18.5127V21.958H73.3408V15.5361H74.1494L74.2549 16.7197H74.2959C74.4287 16.4814 74.5889 16.2646 74.7764 16.0693C74.9639 15.8701 75.1807 15.7119 75.4268 15.5947C75.6768 15.4775 75.9541 15.4189 76.2588 15.4189ZM80.7236 15.4189C81.2705 15.4189 81.7393 15.54 82.1299 15.7822C82.5205 16.0244 82.8193 16.3643 83.0264 16.8018C83.2334 17.2354 83.3369 17.7432 83.3369 18.3252V18.9287H78.9014C78.9131 19.6826 79.1006 20.2568 79.4639 20.6514C79.8271 21.0459 80.3389 21.2432 80.999 21.2432C81.4053 21.2432 81.7646 21.2061 82.0771 21.1318C82.3896 21.0576 82.7139 20.9482 83.0498 20.8037V21.6592C82.7256 21.8037 82.4033 21.9092 82.083 21.9756C81.7666 22.042 81.3916 22.0752 80.958 22.0752C80.3408 22.0752 79.8018 21.9502 79.3408 21.7002C78.8838 21.4463 78.5283 21.0752 78.2744 20.5869C78.0205 20.0986 77.8936 19.501 77.8936 18.7939C77.8936 18.1025 78.0088 17.5049 78.2393 17.001C78.4736 16.4932 78.8018 16.1025 79.2236 15.8291C79.6494 15.5557 80.1494 15.4189 80.7236 15.4189ZM80.7119 16.2158C80.1924 16.2158 79.7783 16.3857 79.4697 16.7256C79.1611 17.0654 78.9775 17.54 78.9189 18.1494H82.3174C82.3135 17.7666 82.2529 17.4307 82.1357 17.1416C82.0225 16.8486 81.8486 16.6221 81.6143 16.4619C81.3799 16.2979 81.0791 16.2158 80.7119 16.2158ZM87.0635 21.2783C87.2236 21.2783 87.3877 21.2646 87.5557 21.2373C87.7236 21.21 87.8604 21.1768 87.9658 21.1377V21.8936C87.8525 21.9443 87.6943 21.9873 87.4912 22.0225C87.292 22.0576 87.0967 22.0752 86.9053 22.0752C86.5654 22.0752 86.2568 22.0166 85.9795 21.8994C85.7021 21.7783 85.4795 21.5752 85.3115 21.29C85.1475 21.0049 85.0654 20.6104 85.0654 20.1064V16.2979H84.1514V15.8232L85.0713 15.4424L85.458 14.0479H86.0439V15.5361H87.9248V16.2979H86.0439V20.0771C86.0439 20.4795 86.1357 20.7803 86.3193 20.9795C86.5068 21.1787 86.7549 21.2783 87.0635 21.2783ZM91.6689 15.4307C92.4346 15.4307 93.0029 15.6025 93.374 15.9463C93.7451 16.29 93.9307 16.8389 93.9307 17.5928V21.958H93.2217L93.0342 21.0088H92.9873C92.8076 21.2432 92.6201 21.4404 92.4248 21.6006C92.2295 21.7568 92.0029 21.876 91.7451 21.958C91.4912 22.0361 91.1787 22.0752 90.8076 22.0752C90.417 22.0752 90.0693 22.0068 89.7646 21.8701C89.4639 21.7334 89.2256 21.5264 89.0498 21.249C88.8779 20.9717 88.792 20.6201 88.792 20.1943C88.792 19.5537 89.0459 19.0615 89.5537 18.7178C90.0615 18.374 90.835 18.1865 91.874 18.1553L92.9814 18.1084V17.7158C92.9814 17.1611 92.8623 16.7725 92.624 16.5498C92.3857 16.3271 92.0498 16.2158 91.6162 16.2158C91.2803 16.2158 90.96 16.2646 90.6553 16.3623C90.3506 16.46 90.0615 16.5752 89.7881 16.708L89.4893 15.9697C89.7783 15.8213 90.1104 15.6943 90.4854 15.5889C90.8604 15.4834 91.2549 15.4307 91.6689 15.4307ZM92.9697 18.7939L91.9912 18.835C91.1904 18.8662 90.626 18.9971 90.2979 19.2275C89.9697 19.458 89.8057 19.7842 89.8057 20.2061C89.8057 20.5732 89.917 20.8447 90.1396 21.0205C90.3623 21.1963 90.6572 21.2842 91.0244 21.2842C91.5947 21.2842 92.0615 21.126 92.4248 20.8096C92.7881 20.4932 92.9697 20.0186 92.9697 19.3857V18.7939ZM98.0088 21.2783C98.1689 21.2783 98.333 21.2646 98.501 21.2373C98.6689 21.21 98.8057 21.1768 98.9111 21.1377V21.8936C98.7979 21.9443 98.6396 21.9873 98.4365 22.0225C98.2373 22.0576 98.042 22.0752 97.8506 22.0752C97.5107 22.0752 97.2021 22.0166 96.9248 21.8994C96.6475 21.7783 96.4248 21.5752 96.2568 21.29C96.0928 21.0049 96.0107 20.6104 96.0107 20.1064V16.2979H95.0967V15.8232L96.0166 15.4424L96.4033 14.0479H96.9893V15.5361H98.8701V16.2979H96.9893V20.0771C96.9893 20.4795 97.0811 20.7803 97.2646 20.9795C97.4521 21.1787 97.7002 21.2783 98.0088 21.2783ZM101.185 15.5361V21.958H100.212V15.5361H101.185ZM100.71 13.1338C100.87 13.1338 101.007 13.1865 101.12 13.292C101.237 13.3936 101.296 13.5537 101.296 13.7725C101.296 13.9873 101.237 14.1475 101.12 14.2529C101.007 14.3584 100.87 14.4111 100.71 14.4111C100.542 14.4111 100.401 14.3584 100.288 14.2529C100.179 14.1475 100.124 13.9873 100.124 13.7725C100.124 13.5537 100.179 13.3936 100.288 13.292C100.401 13.1865 100.542 13.1338 100.71 13.1338ZM108.784 18.7354C108.784 19.2627 108.716 19.7334 108.579 20.1475C108.442 20.5615 108.245 20.9111 107.987 21.1963C107.729 21.4814 107.417 21.7002 107.05 21.8525C106.687 22.001 106.274 22.0752 105.813 22.0752C105.384 22.0752 104.989 22.001 104.63 21.8525C104.274 21.7002 103.966 21.4814 103.704 21.1963C103.446 20.9111 103.245 20.5615 103.101 20.1475C102.96 19.7334 102.89 19.2627 102.89 18.7354C102.89 18.0322 103.009 17.4346 103.247 16.9424C103.485 16.4463 103.825 16.0693 104.267 15.8115C104.712 15.5498 105.241 15.4189 105.854 15.4189C106.44 15.4189 106.952 15.5498 107.39 15.8115C107.831 16.0732 108.173 16.4521 108.415 16.9482C108.661 17.4404 108.784 18.0361 108.784 18.7354ZM103.897 18.7354C103.897 19.251 103.966 19.6982 104.103 20.0771C104.239 20.4561 104.45 20.749 104.735 20.9561C105.021 21.1631 105.388 21.2666 105.837 21.2666C106.282 21.2666 106.647 21.1631 106.933 20.9561C107.222 20.749 107.435 20.4561 107.571 20.0771C107.708 19.6982 107.776 19.251 107.776 18.7354C107.776 18.2236 107.708 17.7822 107.571 17.4111C107.435 17.0361 107.224 16.7471 106.938 16.5439C106.653 16.3408 106.284 16.2393 105.831 16.2393C105.163 16.2393 104.673 16.46 104.36 16.9014C104.052 17.3428 103.897 17.9541 103.897 18.7354ZM113.507 15.4189C114.269 15.4189 114.845 15.6064 115.235 15.9814C115.626 16.3525 115.821 16.9502 115.821 17.7744V21.958H114.86V17.8389C114.86 17.3037 114.737 16.9033 114.491 16.6377C114.249 16.3721 113.876 16.2393 113.372 16.2393C112.661 16.2393 112.161 16.4404 111.872 16.8428C111.583 17.2451 111.438 17.8291 111.438 18.5947V21.958H110.466V15.5361H111.251L111.397 16.4619H111.45C111.587 16.2354 111.761 16.0459 111.972 15.8936C112.183 15.7373 112.419 15.6201 112.681 15.542C112.942 15.46 113.218 15.4189 113.507 15.4189ZM124.13 21.958H123.181V15.8877C123.181 15.6572 123.181 15.46 123.181 15.2959C123.185 15.1279 123.188 14.9756 123.192 14.8389C123.2 14.6982 123.21 14.5557 123.222 14.4111C123.101 14.5361 122.987 14.6436 122.882 14.7334C122.776 14.8193 122.646 14.9268 122.489 15.0557L121.511 15.8408L121.001 15.1787L123.321 13.3916H124.13V21.958Z" fill="black"/>
<path d="M20.0479 49.667H15.2783V41.1006H20.0479V41.9795H16.2744V44.751H19.8311V45.6182H16.2744V48.7881H20.0479V49.667ZM24.8408 43.1279C25.6025 43.1279 26.1787 43.3154 26.5693 43.6904C26.96 44.0615 27.1553 44.6592 27.1553 45.4834V49.667H26.1943V45.5479C26.1943 45.0127 26.0713 44.6123 25.8252 44.3467C25.583 44.0811 25.21 43.9482 24.7061 43.9482C23.9951 43.9482 23.4951 44.1494 23.2061 44.5518C22.917 44.9541 22.7725 45.5381 22.7725 46.3037V49.667H21.7998V43.2451H22.585L22.7314 44.1709H22.7842C22.9209 43.9443 23.0947 43.7549 23.3057 43.6025C23.5166 43.4463 23.7529 43.3291 24.0146 43.251C24.2764 43.1689 24.5518 43.1279 24.8408 43.1279ZM31.2334 48.9873C31.3936 48.9873 31.5576 48.9736 31.7256 48.9463C31.8936 48.9189 32.0303 48.8857 32.1357 48.8467V49.6025C32.0225 49.6533 31.8643 49.6963 31.6611 49.7314C31.4619 49.7666 31.2666 49.7842 31.0752 49.7842C30.7354 49.7842 30.4268 49.7256 30.1494 49.6084C29.8721 49.4873 29.6494 49.2842 29.4814 48.999C29.3174 48.7139 29.2354 48.3193 29.2354 47.8154V44.0068H28.3213V43.5322L29.2412 43.1514L29.6279 41.7568H30.2139V43.2451H32.0947V44.0068H30.2139V47.7861C30.2139 48.1885 30.3057 48.4893 30.4893 48.6885C30.6768 48.8877 30.9248 48.9873 31.2334 48.9873ZM35.9092 43.1279C36.4561 43.1279 36.9248 43.249 37.3154 43.4912C37.7061 43.7334 38.0049 44.0732 38.2119 44.5107C38.4189 44.9443 38.5225 45.4521 38.5225 46.0342V46.6377H34.0869C34.0986 47.3916 34.2861 47.9658 34.6494 48.3604C35.0127 48.7549 35.5244 48.9521 36.1846 48.9521C36.5908 48.9521 36.9502 48.915 37.2627 48.8408C37.5752 48.7666 37.8994 48.6572 38.2354 48.5127V49.3682C37.9111 49.5127 37.5889 49.6182 37.2686 49.6846C36.9521 49.751 36.5771 49.7842 36.1436 49.7842C35.5264 49.7842 34.9873 49.6592 34.5264 49.4092C34.0693 49.1553 33.7139 48.7842 33.46 48.2959C33.2061 47.8076 33.0791 47.21 33.0791 46.5029C33.0791 45.8115 33.1943 45.2139 33.4248 44.71C33.6592 44.2021 33.9873 43.8115 34.4092 43.5381C34.835 43.2646 35.335 43.1279 35.9092 43.1279ZM35.8975 43.9248C35.3779 43.9248 34.9639 44.0947 34.6553 44.4346C34.3467 44.7744 34.1631 45.249 34.1045 45.8584H37.5029C37.499 45.4756 37.4385 45.1396 37.3213 44.8506C37.208 44.5576 37.0342 44.3311 36.7998 44.1709C36.5654 44.0068 36.2646 43.9248 35.8975 43.9248ZM43.0928 43.1279C43.2217 43.1279 43.3564 43.1357 43.4971 43.1514C43.6377 43.1631 43.7627 43.1807 43.8721 43.2041L43.749 44.1064C43.6436 44.0791 43.5264 44.0576 43.3975 44.042C43.2686 44.0264 43.1475 44.0186 43.0342 44.0186C42.7764 44.0186 42.5322 44.0713 42.3018 44.1768C42.0752 44.2783 41.876 44.4268 41.7041 44.6221C41.5322 44.8135 41.3975 45.0459 41.2998 45.3193C41.2021 45.5889 41.1533 45.8896 41.1533 46.2217V49.667H40.1748V43.2451H40.9834L41.0889 44.4287H41.1299C41.2627 44.1904 41.4229 43.9736 41.6104 43.7783C41.7979 43.5791 42.0146 43.4209 42.2607 43.3037C42.5107 43.1865 42.7881 43.1279 43.0928 43.1279ZM50.9795 49.667H49.9775V41.9795H47.2822V41.1006H53.6631V41.9795H50.9795V49.667ZM57.2842 43.1279C57.8311 43.1279 58.2998 43.249 58.6904 43.4912C59.0811 43.7334 59.3799 44.0732 59.5869 44.5107C59.7939 44.9443 59.8975 45.4521 59.8975 46.0342V46.6377H55.4619C55.4736 47.3916 55.6611 47.9658 56.0244 48.3604C56.3877 48.7549 56.8994 48.9521 57.5596 48.9521C57.9658 48.9521 58.3252 48.915 58.6377 48.8408C58.9502 48.7666 59.2744 48.6572 59.6104 48.5127V49.3682C59.2861 49.5127 58.9639 49.6182 58.6436 49.6846C58.3271 49.751 57.9521 49.7842 57.5186 49.7842C56.9014 49.7842 56.3623 49.6592 55.9014 49.4092C55.4443 49.1553 55.0889 48.7842 54.835 48.2959C54.5811 47.8076 54.4541 47.21 54.4541 46.5029C54.4541 45.8115 54.5693 45.2139 54.7998 44.71C55.0342 44.2021 55.3623 43.8115 55.7842 43.5381C56.21 43.2646 56.71 43.1279 57.2842 43.1279ZM57.2725 43.9248C56.7529 43.9248 56.3389 44.0947 56.0303 44.4346C55.7217 44.7744 55.5381 45.249 55.4795 45.8584H58.8779C58.874 45.4756 58.8135 45.1396 58.6963 44.8506C58.583 44.5576 58.4092 44.3311 58.1748 44.1709C57.9404 44.0068 57.6396 43.9248 57.2725 43.9248ZM63.0791 46.3799L60.8584 43.2451H61.9717L63.665 45.7178L65.3525 43.2451H66.4541L64.2334 46.3799L66.5771 49.667H65.4639L63.665 47.0479L61.8545 49.667H60.7529L63.0791 46.3799ZM69.9053 48.9873C70.0654 48.9873 70.2295 48.9736 70.3975 48.9463C70.5654 48.9189 70.7021 48.8857 70.8076 48.8467V49.6025C70.6943 49.6533 70.5361 49.6963 70.333 49.7314C70.1338 49.7666 69.9385 49.7842 69.7471 49.7842C69.4072 49.7842 69.0986 49.7256 68.8213 49.6084C68.5439 49.4873 68.3213 49.2842 68.1533 48.999C67.9893 48.7139 67.9072 48.3193 67.9072 47.8154V44.0068H66.9932V43.5322L67.9131 43.1514L68.2998 41.7568H68.8857V43.2451H70.7666V44.0068H68.8857V47.7861C68.8857 48.1885 68.9775 48.4893 69.1611 48.6885C69.3486 48.8877 69.5967 48.9873 69.9053 48.9873ZM76.1982 40.5498V43.2744C76.1982 43.4307 76.1943 43.5889 76.1865 43.749C76.1787 43.9053 76.165 44.0498 76.1455 44.1826H76.21C76.3428 43.9561 76.5107 43.7666 76.7139 43.6143C76.9209 43.458 77.1553 43.3408 77.417 43.2627C77.6787 43.1807 77.9561 43.1396 78.249 43.1396C78.7646 43.1396 79.1943 43.2217 79.5381 43.3857C79.8857 43.5498 80.1455 43.8037 80.3174 44.1475C80.4932 44.4912 80.5811 44.9365 80.5811 45.4834V49.667H79.6201V45.5479C79.6201 45.0127 79.4971 44.6123 79.251 44.3467C79.0088 44.0811 78.6357 43.9482 78.1318 43.9482C77.6553 43.9482 77.2744 44.04 76.9893 44.2236C76.708 44.4033 76.5049 44.6689 76.3799 45.0205C76.2588 45.3721 76.1982 45.8018 76.1982 46.3096V49.667H75.2256V40.5498H76.1982ZM85.0576 43.1279C85.6045 43.1279 86.0732 43.249 86.4639 43.4912C86.8545 43.7334 87.1533 44.0732 87.3604 44.5107C87.5674 44.9443 87.6709 45.4521 87.6709 46.0342V46.6377H83.2354C83.2471 47.3916 83.4346 47.9658 83.7979 48.3604C84.1611 48.7549 84.6729 48.9521 85.333 48.9521C85.7393 48.9521 86.0986 48.915 86.4111 48.8408C86.7236 48.7666 87.0479 48.6572 87.3838 48.5127V49.3682C87.0596 49.5127 86.7373 49.6182 86.417 49.6846C86.1006 49.751 85.7256 49.7842 85.292 49.7842C84.6748 49.7842 84.1357 49.6592 83.6748 49.4092C83.2178 49.1553 82.8623 48.7842 82.6084 48.2959C82.3545 47.8076 82.2275 47.21 82.2275 46.5029C82.2275 45.8115 82.3428 45.2139 82.5732 44.71C82.8076 44.2021 83.1357 43.8115 83.5576 43.5381C83.9834 43.2646 84.4834 43.1279 85.0576 43.1279ZM85.0459 43.9248C84.5264 43.9248 84.1123 44.0947 83.8037 44.4346C83.4951 44.7744 83.3115 45.249 83.2529 45.8584H86.6514C86.6475 45.4756 86.5869 45.1396 86.4697 44.8506C86.3564 44.5576 86.1826 44.3311 85.9482 44.1709C85.7139 44.0068 85.4131 43.9248 85.0459 43.9248ZM92.2412 43.1279C92.3701 43.1279 92.5049 43.1357 92.6455 43.1514C92.7861 43.1631 92.9111 43.1807 93.0205 43.2041L92.8975 44.1064C92.792 44.0791 92.6748 44.0576 92.5459 44.042C92.417 44.0264 92.2959 44.0186 92.1826 44.0186C91.9248 44.0186 91.6807 44.0713 91.4502 44.1768C91.2236 44.2783 91.0244 44.4268 90.8525 44.6221C90.6807 44.8135 90.5459 45.0459 90.4482 45.3193C90.3506 45.5889 90.3018 45.8896 90.3018 46.2217V49.667H89.3232V43.2451H90.1318L90.2373 44.4287H90.2783C90.4111 44.1904 90.5713 43.9736 90.7588 43.7783C90.9463 43.5791 91.1631 43.4209 91.4092 43.3037C91.6592 43.1865 91.9365 43.1279 92.2412 43.1279ZM96.7061 43.1279C97.2529 43.1279 97.7217 43.249 98.1123 43.4912C98.5029 43.7334 98.8018 44.0732 99.0088 44.5107C99.2158 44.9443 99.3193 45.4521 99.3193 46.0342V46.6377H94.8838C94.8955 47.3916 95.083 47.9658 95.4463 48.3604C95.8096 48.7549 96.3213 48.9521 96.9814 48.9521C97.3877 48.9521 97.7471 48.915 98.0596 48.8408C98.3721 48.7666 98.6963 48.6572 99.0322 48.5127V49.3682C98.708 49.5127 98.3857 49.6182 98.0654 49.6846C97.749 49.751 97.374 49.7842 96.9404 49.7842C96.3232 49.7842 95.7842 49.6592 95.3232 49.4092C94.8662 49.1553 94.5107 48.7842 94.2568 48.2959C94.0029 47.8076 93.876 47.21 93.876 46.5029C93.876 45.8115 93.9912 45.2139 94.2217 44.71C94.4561 44.2021 94.7842 43.8115 95.2061 43.5381C95.6318 43.2646 96.1318 43.1279 96.7061 43.1279ZM96.6943 43.9248C96.1748 43.9248 95.7607 44.0947 95.4521 44.4346C95.1436 44.7744 94.96 45.249 94.9014 45.8584H98.2998C98.2959 45.4756 98.2354 45.1396 98.1182 44.8506C98.0049 44.5576 97.8311 44.3311 97.5967 44.1709C97.3623 44.0068 97.0615 43.9248 96.6943 43.9248Z" fill="#6C757D"/>
<defs>
<filter id="filter0_d_20287_299" x="0" y="0" width="215" height="80.3228" filterUnits="userSpaceOnUse" color-interpolation-filters="sRGB">
<feFlood flood-opacity="0" result="BackgroundImageFix"/>
<feColorMatrix in="SourceAlpha" type="matrix" values="0 0 0 0 0 0 0 0 0 0 0 0 0 0 0 0 0 0 127 0" result="hardAlpha"/>
<feOffset dx="1" dy="3"/>
<feGaussianBlur stdDeviation="4"/>
<feComposite in2="hardAlpha" operator="out"/>
<feColorMatrix type="matrix" values="0 0 0 0 0 0 0 0 0 0 0 0 0 0 0 0 0 0 0.25 0"/>
<feBlend mode="normal" in2="BackgroundImageFix" result="effect1_dropShadow_20287_299"/>
<feBlend mode="normal" in="SourceGraphic" in2="effect1_dropShadow_20287_299" result="shape"/>
</filter>
<filter id="filter1_d_20287_299" x="0" y="24.7393" width="215" height="85.271" filterUnits="userSpaceOnUse" color-interpolation-filters="sRGB">
<feFlood flood-opacity="0" result="BackgroundImageFix"/>
<feColorMatrix in="SourceAlpha" type="matrix" values="0 0 0 0 0 0 0 0 0 0 0 0 0 0 0 0 0 0 127 0" result="hardAlpha"/>
<feOffset dx="1" dy="3"/>
<feGaussianBlur stdDeviation="4"/>
<feComposite in2="hardAlpha" operator="out"/>
<feColorMatrix type="matrix" values="0 0 0 0 0 0 0 0 0 0 0 0 0 0 0 0 0 0 0.25 0"/>
<feBlend mode="normal" in2="BackgroundImageFix" result="effect1_dropShadow_20287_299"/>
<feBlend mode="normal" in="SourceGraphic" in2="effect1_dropShadow_20287_299" result="shape"/>
</filter>
</defs>
</svg>
