<svg width="441" height="124" viewBox="0 0 441 124" fill="none" xmlns="http://www.w3.org/2000/svg">
<g opacity="0.5" filter="url(#filter0_d_20287_275)">
<rect x="7" y="5" width="425" height="65" rx="10" fill="black" fill-opacity="0.05" shape-rendering="crispEdges"/>
<rect x="7.05" y="5.05" width="424.9" height="64.9" rx="9.95" stroke="#333333" stroke-width="0.1" shape-rendering="crispEdges"/>
</g>
<rect x="7" y="30" width="425" height="83" rx="10" fill="#FAFAFA"/>
<g opacity="0.5" filter="url(#filter1_d_20287_275)">
<rect x="7" y="30" width="425" height="83" rx="10" fill="white"/>
<rect x="7.05" y="30.05" width="424.9" height="82.9" rx="9.95" stroke="#333333" stroke-width="0.1"/>
</g>
<path d="M27.7881 19.7207C27.7881 20.2285 27.6611 20.6621 27.4072 21.0215C27.1572 21.377 26.8057 21.6484 26.3525 21.8359C25.8994 22.0234 25.3662 22.1172 24.7529 22.1172C24.4287 22.1172 24.1221 22.1016 23.833 22.0703C23.5439 22.0391 23.2783 21.9941 23.0361 21.9355C22.7939 21.877 22.5811 21.8047 22.3975 21.7188V20.7637C22.6904 20.8848 23.0479 20.998 23.4697 21.1035C23.8916 21.2051 24.333 21.2559 24.7939 21.2559C25.2236 21.2559 25.5869 21.1992 25.8838 21.0859C26.1807 20.9688 26.4053 20.8027 26.5576 20.5879C26.7139 20.3691 26.792 20.1074 26.792 19.8027C26.792 19.5098 26.7275 19.2656 26.5986 19.0703C26.4697 18.8711 26.2549 18.6914 25.9541 18.5312C25.6572 18.3672 25.251 18.1934 24.7354 18.0098C24.3721 17.8809 24.0518 17.7402 23.7744 17.5879C23.4971 17.4316 23.2646 17.2559 23.0771 17.0605C22.8896 16.8652 22.7471 16.6387 22.6494 16.3809C22.5557 16.123 22.5088 15.8281 22.5088 15.4961C22.5088 15.0391 22.624 14.6484 22.8545 14.3242C23.0889 13.9961 23.4111 13.7461 23.8213 13.5742C24.2354 13.3984 24.71 13.3105 25.2451 13.3105C25.7021 13.3105 26.124 13.3535 26.5107 13.4395C26.9014 13.5254 27.2588 13.6406 27.583 13.7852L27.2725 14.6406C26.9639 14.5117 26.6357 14.4043 26.2881 14.3184C25.9443 14.2324 25.5889 14.1895 25.2217 14.1895C24.8545 14.1895 24.5439 14.2441 24.29 14.3535C24.04 14.459 23.8486 14.6094 23.7158 14.8047C23.583 15 23.5166 15.2324 23.5166 15.502C23.5166 15.8027 23.5791 16.0527 23.7041 16.252C23.833 16.4512 24.0361 16.6289 24.3135 16.7852C24.5947 16.9375 24.9658 17.0977 25.4268 17.2656C25.9307 17.4492 26.3584 17.6445 26.71 17.8516C27.0615 18.0547 27.3291 18.3047 27.5127 18.6016C27.6963 18.8945 27.7881 19.2676 27.7881 19.7207ZM34.6963 15.5781V22H33.8994L33.7588 21.0977H33.7061C33.5732 21.3203 33.4014 21.5078 33.1904 21.6602C32.9795 21.8125 32.7412 21.9258 32.4756 22C32.2139 22.0781 31.9346 22.1172 31.6377 22.1172C31.1299 22.1172 30.7041 22.0352 30.3604 21.8711C30.0166 21.707 29.7568 21.4531 29.5811 21.1094C29.4092 20.7656 29.3232 20.3242 29.3232 19.7852V15.5781H30.3076V19.7148C30.3076 20.25 30.4287 20.6504 30.6709 20.916C30.9131 21.1777 31.2822 21.3086 31.7783 21.3086C32.2549 21.3086 32.6338 21.2188 32.915 21.0391C33.2002 20.8594 33.4053 20.5957 33.5303 20.248C33.6553 19.8965 33.7178 19.4668 33.7178 18.959V15.5781H34.6963ZM43.7256 15.4609C44.4326 15.4609 44.9658 15.6465 45.3252 16.0176C45.6846 16.3848 45.8643 16.9766 45.8643 17.793V22H44.9033V17.8398C44.9033 17.3203 44.79 16.9316 44.5635 16.6738C44.3408 16.4121 44.0088 16.2812 43.5674 16.2812C42.9463 16.2812 42.4951 16.4609 42.2139 16.8203C41.9326 17.1797 41.792 17.709 41.792 18.4082V22H40.8252V17.8398C40.8252 17.4922 40.7744 17.2031 40.6729 16.9727C40.5752 16.7422 40.4268 16.5703 40.2275 16.457C40.0322 16.3398 39.7842 16.2812 39.4834 16.2812C39.0576 16.2812 38.7158 16.3691 38.458 16.5449C38.2002 16.7207 38.0127 16.9824 37.8955 17.3301C37.7822 17.6738 37.7256 18.0977 37.7256 18.6016V22H36.7529V15.5781H37.5381L37.6846 16.4863H37.7373C37.8662 16.2637 38.0283 16.0762 38.2236 15.9238C38.4189 15.7715 38.6377 15.6562 38.8799 15.5781C39.1221 15.5 39.3799 15.4609 39.6533 15.4609C40.1416 15.4609 40.5498 15.5527 40.8779 15.7363C41.21 15.916 41.4502 16.1914 41.5986 16.5625H41.6514C41.8623 16.1914 42.1514 15.916 42.5186 15.7363C42.8857 15.5527 43.2881 15.4609 43.7256 15.4609ZM54.835 15.4609C55.542 15.4609 56.0752 15.6465 56.4346 16.0176C56.7939 16.3848 56.9736 16.9766 56.9736 17.793V22H56.0127V17.8398C56.0127 17.3203 55.8994 16.9316 55.6729 16.6738C55.4502 16.4121 55.1182 16.2812 54.6768 16.2812C54.0557 16.2812 53.6045 16.4609 53.3232 16.8203C53.042 17.1797 52.9014 17.709 52.9014 18.4082V22H51.9346V17.8398C51.9346 17.4922 51.8838 17.2031 51.7822 16.9727C51.6846 16.7422 51.5361 16.5703 51.3369 16.457C51.1416 16.3398 50.8936 16.2812 50.5928 16.2812C50.167 16.2812 49.8252 16.3691 49.5674 16.5449C49.3096 16.7207 49.1221 16.9824 49.0049 17.3301C48.8916 17.6738 48.835 18.0977 48.835 18.6016V22H47.8623V15.5781H48.6475L48.7939 16.4863H48.8467C48.9756 16.2637 49.1377 16.0762 49.333 15.9238C49.5283 15.7715 49.7471 15.6562 49.9893 15.5781C50.2314 15.5 50.4893 15.4609 50.7627 15.4609C51.251 15.4609 51.6592 15.5527 51.9873 15.7363C52.3193 15.916 52.5596 16.1914 52.708 16.5625H52.7607C52.9717 16.1914 53.2607 15.916 53.6279 15.7363C53.9951 15.5527 54.3975 15.4609 54.835 15.4609ZM61.374 15.4727C62.1396 15.4727 62.708 15.6445 63.0791 15.9883C63.4502 16.332 63.6357 16.8809 63.6357 17.6348V22H62.9268L62.7393 21.0508H62.6924C62.5127 21.2852 62.3252 21.4824 62.1299 21.6426C61.9346 21.7988 61.708 21.918 61.4502 22C61.1963 22.0781 60.8838 22.1172 60.5127 22.1172C60.1221 22.1172 59.7744 22.0488 59.4697 21.9121C59.1689 21.7754 58.9307 21.5684 58.7549 21.291C58.583 21.0137 58.4971 20.6621 58.4971 20.2363C58.4971 19.5957 58.751 19.1035 59.2588 18.7598C59.7666 18.416 60.54 18.2285 61.5791 18.1973L62.6865 18.1504V17.7578C62.6865 17.2031 62.5674 16.8145 62.3291 16.5918C62.0908 16.3691 61.7549 16.2578 61.3213 16.2578C60.9854 16.2578 60.665 16.3066 60.3604 16.4043C60.0557 16.502 59.7666 16.6172 59.4932 16.75L59.1943 16.0117C59.4834 15.8633 59.8154 15.7363 60.1904 15.6309C60.5654 15.5254 60.96 15.4727 61.374 15.4727ZM62.6748 18.8359L61.6963 18.877C60.8955 18.9082 60.3311 19.0391 60.0029 19.2695C59.6748 19.5 59.5107 19.8262 59.5107 20.248C59.5107 20.6152 59.6221 20.8867 59.8447 21.0625C60.0674 21.2383 60.3623 21.3262 60.7295 21.3262C61.2998 21.3262 61.7666 21.168 62.1299 20.8516C62.4932 20.5352 62.6748 20.0605 62.6748 19.4277V18.8359ZM68.5576 15.4609C68.6865 15.4609 68.8213 15.4688 68.9619 15.4844C69.1025 15.4961 69.2275 15.5137 69.3369 15.5371L69.2139 16.4395C69.1084 16.4121 68.9912 16.3906 68.8623 16.375C68.7334 16.3594 68.6123 16.3516 68.499 16.3516C68.2412 16.3516 67.9971 16.4043 67.7666 16.5098C67.54 16.6113 67.3408 16.7598 67.1689 16.9551C66.9971 17.1465 66.8623 17.3789 66.7646 17.6523C66.667 17.9219 66.6182 18.2227 66.6182 18.5547V22H65.6396V15.5781H66.4482L66.5537 16.7617H66.5947C66.7275 16.5234 66.8877 16.3066 67.0752 16.1113C67.2627 15.9121 67.4795 15.7539 67.7256 15.6367C67.9756 15.5195 68.2529 15.4609 68.5576 15.4609ZM69.5361 15.5781H70.5791L71.9971 19.3047C72.0791 19.5234 72.1553 19.7344 72.2256 19.9375C72.2959 20.1367 72.3584 20.3281 72.4131 20.5117C72.4678 20.6953 72.5107 20.873 72.542 21.0449H72.583C72.6377 20.8496 72.7158 20.5938 72.8174 20.2773C72.9189 19.957 73.0283 19.6309 73.1455 19.2988L74.4873 15.5781H75.5361L72.7412 22.9434C72.5928 23.3379 72.4189 23.6816 72.2197 23.9746C72.0244 24.2676 71.7861 24.4922 71.5049 24.6484C71.2236 24.8086 70.8838 24.8887 70.4854 24.8887C70.3018 24.8887 70.1396 24.877 69.999 24.8535C69.8584 24.834 69.7373 24.8105 69.6357 24.7832V24.0039C69.7217 24.0234 69.8252 24.041 69.9463 24.0566C70.0713 24.0723 70.2002 24.0801 70.333 24.0801C70.5752 24.0801 70.7842 24.0332 70.96 23.9395C71.1396 23.8496 71.2939 23.7168 71.4229 23.541C71.5518 23.3652 71.6631 23.1562 71.7568 22.9141L72.1084 22.0117L69.5361 15.5781ZM82.5381 16.3398H80.9385V22H79.9658V16.3398H78.8291V15.8711L79.9658 15.5488V15.1211C79.9658 14.582 80.0459 14.1445 80.2061 13.8086C80.3662 13.4688 80.5986 13.2188 80.9033 13.0586C81.208 12.8984 81.5791 12.8184 82.0166 12.8184C82.2627 12.8184 82.4873 12.8398 82.6904 12.8828C82.8975 12.9258 83.0791 12.9746 83.2354 13.0293L82.9834 13.7969C82.8506 13.7539 82.7002 13.7148 82.5322 13.6797C82.3682 13.6406 82.2002 13.6211 82.0283 13.6211C81.6572 13.6211 81.3818 13.7422 81.2021 13.9844C81.0264 14.2227 80.9385 14.5977 80.9385 15.1094V15.5781H82.5381V16.3398ZM89.2588 18.7773C89.2588 19.3047 89.1904 19.7754 89.0537 20.1895C88.917 20.6035 88.7197 20.9531 88.4619 21.2383C88.2041 21.5234 87.8916 21.7422 87.5244 21.8945C87.1611 22.043 86.749 22.1172 86.2881 22.1172C85.8584 22.1172 85.4639 22.043 85.1045 21.8945C84.749 21.7422 84.4404 21.5234 84.1787 21.2383C83.9209 20.9531 83.7197 20.6035 83.5752 20.1895C83.4346 19.7754 83.3643 19.3047 83.3643 18.7773C83.3643 18.0742 83.4834 17.4766 83.7217 16.9844C83.96 16.4883 84.2998 16.1113 84.7412 15.8535C85.1865 15.5918 85.7158 15.4609 86.3291 15.4609C86.915 15.4609 87.4268 15.5918 87.8643 15.8535C88.3057 16.1152 88.6475 16.4941 88.8896 16.9902C89.1357 17.4824 89.2588 18.0781 89.2588 18.7773ZM84.3721 18.7773C84.3721 19.293 84.4404 19.7402 84.5771 20.1191C84.7139 20.498 84.9248 20.791 85.21 20.998C85.4951 21.2051 85.8623 21.3086 86.3115 21.3086C86.7568 21.3086 87.1221 21.2051 87.4072 20.998C87.6963 20.791 87.9092 20.498 88.0459 20.1191C88.1826 19.7402 88.251 19.293 88.251 18.7773C88.251 18.2656 88.1826 17.8242 88.0459 17.4531C87.9092 17.0781 87.6982 16.7891 87.4131 16.5859C87.1279 16.3828 86.7588 16.2812 86.3057 16.2812C85.6377 16.2812 85.1475 16.502 84.835 16.9434C84.5264 17.3848 84.3721 17.9961 84.3721 18.7773ZM93.8584 15.4609C93.9873 15.4609 94.1221 15.4688 94.2627 15.4844C94.4033 15.4961 94.5283 15.5137 94.6377 15.5371L94.5146 16.4395C94.4092 16.4121 94.292 16.3906 94.1631 16.375C94.0342 16.3594 93.9131 16.3516 93.7998 16.3516C93.542 16.3516 93.2979 16.4043 93.0674 16.5098C92.8408 16.6113 92.6416 16.7598 92.4697 16.9551C92.2979 17.1465 92.1631 17.3789 92.0654 17.6523C91.9678 17.9219 91.9189 18.2227 91.9189 18.5547V22H90.9404V15.5781H91.749L91.8545 16.7617H91.8955C92.0283 16.5234 92.1885 16.3066 92.376 16.1113C92.5635 15.9121 92.7803 15.7539 93.0264 15.6367C93.2764 15.5195 93.5537 15.4609 93.8584 15.4609ZM101.745 22H100.743V14.3125H98.0479V13.4336H104.429V14.3125H101.745V22ZM106.55 12.8828V15.6074C106.55 15.7637 106.546 15.9219 106.538 16.082C106.53 16.2383 106.517 16.3828 106.497 16.5156H106.562C106.694 16.2891 106.862 16.0996 107.065 15.9473C107.272 15.791 107.507 15.6738 107.769 15.5957C108.03 15.5137 108.308 15.4727 108.601 15.4727C109.116 15.4727 109.546 15.5547 109.89 15.7188C110.237 15.8828 110.497 16.1367 110.669 16.4805C110.845 16.8242 110.933 17.2695 110.933 17.8164V22H109.972V17.8809C109.972 17.3457 109.849 16.9453 109.603 16.6797C109.36 16.4141 108.987 16.2812 108.483 16.2812C108.007 16.2812 107.626 16.373 107.341 16.5566C107.06 16.7363 106.856 17.002 106.731 17.3535C106.61 17.7051 106.55 18.1348 106.55 18.6426V22H105.577V12.8828H106.55ZM115.854 15.4609C115.983 15.4609 116.118 15.4688 116.259 15.4844C116.399 15.4961 116.524 15.5137 116.634 15.5371L116.511 16.4395C116.405 16.4121 116.288 16.3906 116.159 16.375C116.03 16.3594 115.909 16.3516 115.796 16.3516C115.538 16.3516 115.294 16.4043 115.063 16.5098C114.837 16.6113 114.638 16.7598 114.466 16.9551C114.294 17.1465 114.159 17.3789 114.062 17.6523C113.964 17.9219 113.915 18.2227 113.915 18.5547V22H112.937V15.5781H113.745L113.851 16.7617H113.892C114.024 16.5234 114.185 16.3066 114.372 16.1113C114.56 15.9121 114.776 15.7539 115.022 15.6367C115.272 15.5195 115.55 15.4609 115.854 15.4609ZM120.319 15.4609C120.866 15.4609 121.335 15.582 121.726 15.8242C122.116 16.0664 122.415 16.4062 122.622 16.8438C122.829 17.2773 122.933 17.7852 122.933 18.3672V18.9707H118.497C118.509 19.7246 118.696 20.2988 119.06 20.6934C119.423 21.0879 119.935 21.2852 120.595 21.2852C121.001 21.2852 121.36 21.248 121.673 21.1738C121.985 21.0996 122.31 20.9902 122.646 20.8457V21.7012C122.321 21.8457 121.999 21.9512 121.679 22.0176C121.362 22.084 120.987 22.1172 120.554 22.1172C119.937 22.1172 119.397 21.9922 118.937 21.7422C118.479 21.4883 118.124 21.1172 117.87 20.6289C117.616 20.1406 117.489 19.543 117.489 18.8359C117.489 18.1445 117.604 17.5469 117.835 17.043C118.069 16.5352 118.397 16.1445 118.819 15.8711C119.245 15.5977 119.745 15.4609 120.319 15.4609ZM120.308 16.2578C119.788 16.2578 119.374 16.4277 119.065 16.7676C118.757 17.1074 118.573 17.582 118.515 18.1914H121.913C121.909 17.8086 121.849 17.4727 121.731 17.1836C121.618 16.8906 121.444 16.6641 121.21 16.5039C120.976 16.3398 120.675 16.2578 120.308 16.2578ZM126.987 15.4727C127.753 15.4727 128.321 15.6445 128.692 15.9883C129.063 16.332 129.249 16.8809 129.249 17.6348V22H128.54L128.353 21.0508H128.306C128.126 21.2852 127.938 21.4824 127.743 21.6426C127.548 21.7988 127.321 21.918 127.063 22C126.81 22.0781 126.497 22.1172 126.126 22.1172C125.735 22.1172 125.388 22.0488 125.083 21.9121C124.782 21.7754 124.544 21.5684 124.368 21.291C124.196 21.0137 124.11 20.6621 124.11 20.2363C124.11 19.5957 124.364 19.1035 124.872 18.7598C125.38 18.416 126.153 18.2285 127.192 18.1973L128.3 18.1504V17.7578C128.3 17.2031 128.181 16.8145 127.942 16.5918C127.704 16.3691 127.368 16.2578 126.935 16.2578C126.599 16.2578 126.278 16.3066 125.974 16.4043C125.669 16.502 125.38 16.6172 125.106 16.75L124.808 16.0117C125.097 15.8633 125.429 15.7363 125.804 15.6309C126.179 15.5254 126.573 15.4727 126.987 15.4727ZM128.288 18.8359L127.31 18.877C126.509 18.9082 125.944 19.0391 125.616 19.2695C125.288 19.5 125.124 19.8262 125.124 20.248C125.124 20.6152 125.235 20.8867 125.458 21.0625C125.681 21.2383 125.976 21.3262 126.343 21.3262C126.913 21.3262 127.38 21.168 127.743 20.8516C128.106 20.5352 128.288 20.0605 128.288 19.4277V18.8359ZM133.538 22.1172C132.726 22.1172 132.081 21.8398 131.604 21.2852C131.132 20.7305 130.896 19.9062 130.896 18.8125C130.896 17.707 131.138 16.873 131.622 16.3105C132.106 15.7441 132.751 15.4609 133.556 15.4609C133.896 15.4609 134.192 15.5059 134.446 15.5957C134.7 15.6855 134.919 15.8066 135.103 15.959C135.286 16.1074 135.44 16.2773 135.565 16.4688H135.636C135.62 16.3477 135.604 16.1816 135.589 15.9707C135.573 15.7598 135.565 15.5879 135.565 15.4551V12.8828H136.538V22H135.753L135.606 21.0859H135.565C135.444 21.2773 135.29 21.4512 135.103 21.6074C134.919 21.7637 134.698 21.8887 134.44 21.9824C134.187 22.0723 133.886 22.1172 133.538 22.1172ZM133.69 21.3086C134.378 21.3086 134.864 21.1133 135.149 20.7227C135.435 20.332 135.577 19.752 135.577 18.9824V18.8066C135.577 17.9902 135.44 17.3633 135.167 16.9258C134.897 16.4883 134.405 16.2695 133.69 16.2695C133.093 16.2695 132.646 16.5 132.349 16.9609C132.052 17.418 131.903 18.043 131.903 18.8359C131.903 19.625 132.05 20.2344 132.343 20.6641C132.64 21.0938 133.089 21.3086 133.69 21.3086ZM147.237 22L146.183 19.2812H142.749L141.7 22H140.692L144.044 13.3984H144.94L148.269 22H147.237ZM145.884 18.3965L144.882 15.6953C144.858 15.625 144.819 15.5098 144.765 15.3496C144.714 15.1895 144.661 15.0234 144.606 14.8516C144.552 14.6797 144.507 14.541 144.472 14.4355C144.433 14.5957 144.39 14.7559 144.343 14.916C144.3 15.0723 144.257 15.2188 144.214 15.3555C144.171 15.4883 144.134 15.6016 144.103 15.6953L143.083 18.3965H145.884Z" fill="black"/>
<path d="M27.7236 50H22.9541V41.4336H27.7236V42.3125H23.9502V45.084H27.5068V45.9512H23.9502V49.1211H27.7236V50ZM32.5166 43.4609C33.2783 43.4609 33.8545 43.6484 34.2451 44.0234C34.6357 44.3945 34.8311 44.9922 34.8311 45.8164V50H33.8701V45.8809C33.8701 45.3457 33.7471 44.9453 33.501 44.6797C33.2588 44.4141 32.8857 44.2812 32.3818 44.2812C31.6709 44.2812 31.1709 44.4824 30.8818 44.8848C30.5928 45.2871 30.4482 45.8711 30.4482 46.6367V50H29.4756V43.5781H30.2607L30.4072 44.5039H30.46C30.5967 44.2773 30.7705 44.0879 30.9814 43.9355C31.1924 43.7793 31.4287 43.6621 31.6904 43.584C31.9521 43.502 32.2275 43.4609 32.5166 43.4609ZM38.9092 49.3203C39.0693 49.3203 39.2334 49.3066 39.4014 49.2793C39.5693 49.252 39.7061 49.2188 39.8115 49.1797V49.9355C39.6982 49.9863 39.54 50.0293 39.3369 50.0645C39.1377 50.0996 38.9424 50.1172 38.751 50.1172C38.4111 50.1172 38.1025 50.0586 37.8252 49.9414C37.5479 49.8203 37.3252 49.6172 37.1572 49.332C36.9932 49.0469 36.9111 48.6523 36.9111 48.1484V44.3398H35.9971V43.8652L36.917 43.4844L37.3037 42.0898H37.8896V43.5781H39.7705V44.3398H37.8896V48.1191C37.8896 48.5215 37.9814 48.8223 38.165 49.0215C38.3525 49.2207 38.6006 49.3203 38.9092 49.3203ZM43.585 43.4609C44.1318 43.4609 44.6006 43.582 44.9912 43.8242C45.3818 44.0664 45.6807 44.4062 45.8877 44.8438C46.0947 45.2773 46.1982 45.7852 46.1982 46.3672V46.9707H41.7627C41.7744 47.7246 41.9619 48.2988 42.3252 48.6934C42.6885 49.0879 43.2002 49.2852 43.8604 49.2852C44.2666 49.2852 44.626 49.248 44.9385 49.1738C45.251 49.0996 45.5752 48.9902 45.9111 48.8457V49.7012C45.5869 49.8457 45.2646 49.9512 44.9443 50.0176C44.6279 50.084 44.2529 50.1172 43.8193 50.1172C43.2021 50.1172 42.6631 49.9922 42.2021 49.7422C41.7451 49.4883 41.3896 49.1172 41.1357 48.6289C40.8818 48.1406 40.7549 47.543 40.7549 46.8359C40.7549 46.1445 40.8701 45.5469 41.1006 45.043C41.335 44.5352 41.6631 44.1445 42.085 43.8711C42.5107 43.5977 43.0107 43.4609 43.585 43.4609ZM43.5732 44.2578C43.0537 44.2578 42.6396 44.4277 42.3311 44.7676C42.0225 45.1074 41.8389 45.582 41.7803 46.1914H45.1787C45.1748 45.8086 45.1143 45.4727 44.9971 45.1836C44.8838 44.8906 44.71 44.6641 44.4756 44.5039C44.2412 44.3398 43.9404 44.2578 43.5732 44.2578ZM50.7686 43.4609C50.8975 43.4609 51.0322 43.4688 51.1729 43.4844C51.3135 43.4961 51.4385 43.5137 51.5479 43.5371L51.4248 44.4395C51.3193 44.4121 51.2021 44.3906 51.0732 44.375C50.9443 44.3594 50.8232 44.3516 50.71 44.3516C50.4521 44.3516 50.208 44.4043 49.9775 44.5098C49.751 44.6113 49.5518 44.7598 49.3799 44.9551C49.208 45.1465 49.0732 45.3789 48.9756 45.6523C48.8779 45.9219 48.8291 46.2227 48.8291 46.5547V50H47.8506V43.5781H48.6592L48.7646 44.7617H48.8057C48.9385 44.5234 49.0986 44.3066 49.2861 44.1113C49.4736 43.9121 49.6904 43.7539 49.9365 43.6367C50.1865 43.5195 50.4639 43.4609 50.7686 43.4609ZM58.6553 50H57.6533V42.3125H54.958V41.4336H61.3389V42.3125H58.6553V50ZM64.96 43.4609C65.5068 43.4609 65.9756 43.582 66.3662 43.8242C66.7568 44.0664 67.0557 44.4062 67.2627 44.8438C67.4697 45.2773 67.5732 45.7852 67.5732 46.3672V46.9707H63.1377C63.1494 47.7246 63.3369 48.2988 63.7002 48.6934C64.0635 49.0879 64.5752 49.2852 65.2354 49.2852C65.6416 49.2852 66.001 49.248 66.3135 49.1738C66.626 49.0996 66.9502 48.9902 67.2861 48.8457V49.7012C66.9619 49.8457 66.6396 49.9512 66.3193 50.0176C66.0029 50.084 65.6279 50.1172 65.1943 50.1172C64.5771 50.1172 64.0381 49.9922 63.5771 49.7422C63.1201 49.4883 62.7646 49.1172 62.5107 48.6289C62.2568 48.1406 62.1299 47.543 62.1299 46.8359C62.1299 46.1445 62.2451 45.5469 62.4756 45.043C62.71 44.5352 63.0381 44.1445 63.46 43.8711C63.8857 43.5977 64.3857 43.4609 64.96 43.4609ZM64.9482 44.2578C64.4287 44.2578 64.0146 44.4277 63.7061 44.7676C63.3975 45.1074 63.2139 45.582 63.1553 46.1914H66.5537C66.5498 45.8086 66.4893 45.4727 66.3721 45.1836C66.2588 44.8906 66.085 44.6641 65.8506 44.5039C65.6162 44.3398 65.3154 44.2578 64.9482 44.2578ZM70.7549 46.7129L68.5342 43.5781H69.6475L71.3408 46.0508L73.0283 43.5781H74.1299L71.9092 46.7129L74.2529 50H73.1396L71.3408 47.3809L69.5303 50H68.4287L70.7549 46.7129ZM77.5811 49.3203C77.7412 49.3203 77.9053 49.3066 78.0732 49.2793C78.2412 49.252 78.3779 49.2188 78.4834 49.1797V49.9355C78.3701 49.9863 78.2119 50.0293 78.0088 50.0645C77.8096 50.0996 77.6143 50.1172 77.4229 50.1172C77.083 50.1172 76.7744 50.0586 76.4971 49.9414C76.2197 49.8203 75.9971 49.6172 75.8291 49.332C75.665 49.0469 75.583 48.6523 75.583 48.1484V44.3398H74.6689V43.8652L75.5889 43.4844L75.9756 42.0898H76.5615V43.5781H78.4424V44.3398H76.5615V48.1191C76.5615 48.5215 76.6533 48.8223 76.8369 49.0215C77.0244 49.2207 77.2725 49.3203 77.5811 49.3203ZM89.54 50H88.5439V45.9629H84.0439V50H83.0479V41.4336H84.0439V45.084H88.5439V41.4336H89.54V50ZM94.2217 43.4609C94.7686 43.4609 95.2373 43.582 95.6279 43.8242C96.0186 44.0664 96.3174 44.4062 96.5244 44.8438C96.7314 45.2773 96.835 45.7852 96.835 46.3672V46.9707H92.3994C92.4111 47.7246 92.5986 48.2988 92.9619 48.6934C93.3252 49.0879 93.8369 49.2852 94.4971 49.2852C94.9033 49.2852 95.2627 49.248 95.5752 49.1738C95.8877 49.0996 96.2119 48.9902 96.5479 48.8457V49.7012C96.2236 49.8457 95.9014 49.9512 95.5811 50.0176C95.2646 50.084 94.8896 50.1172 94.4561 50.1172C93.8389 50.1172 93.2998 49.9922 92.8389 49.7422C92.3818 49.4883 92.0264 49.1172 91.7725 48.6289C91.5186 48.1406 91.3916 47.543 91.3916 46.8359C91.3916 46.1445 91.5068 45.5469 91.7373 45.043C91.9717 44.5352 92.2998 44.1445 92.7217 43.8711C93.1475 43.5977 93.6475 43.4609 94.2217 43.4609ZM94.21 44.2578C93.6904 44.2578 93.2764 44.4277 92.9678 44.7676C92.6592 45.1074 92.4756 45.582 92.417 46.1914H95.8154C95.8115 45.8086 95.751 45.4727 95.6338 45.1836C95.5205 44.8906 95.3467 44.6641 95.1123 44.5039C94.8779 44.3398 94.5771 44.2578 94.21 44.2578ZM101.405 43.4609C101.534 43.4609 101.669 43.4688 101.81 43.4844C101.95 43.4961 102.075 43.5137 102.185 43.5371L102.062 44.4395C101.956 44.4121 101.839 44.3906 101.71 44.375C101.581 44.3594 101.46 44.3516 101.347 44.3516C101.089 44.3516 100.845 44.4043 100.614 44.5098C100.388 44.6113 100.188 44.7598 100.017 44.9551C99.8447 45.1465 99.71 45.3789 99.6123 45.6523C99.5146 45.9219 99.4658 46.2227 99.4658 46.5547V50H98.4873V43.5781H99.2959L99.4014 44.7617H99.4424C99.5752 44.5234 99.7354 44.3066 99.9229 44.1113C100.11 43.9121 100.327 43.7539 100.573 43.6367C100.823 43.5195 101.101 43.4609 101.405 43.4609ZM105.87 43.4609C106.417 43.4609 106.886 43.582 107.276 43.8242C107.667 44.0664 107.966 44.4062 108.173 44.8438C108.38 45.2773 108.483 45.7852 108.483 46.3672V46.9707H104.048C104.06 47.7246 104.247 48.2988 104.61 48.6934C104.974 49.0879 105.485 49.2852 106.146 49.2852C106.552 49.2852 106.911 49.248 107.224 49.1738C107.536 49.0996 107.86 48.9902 108.196 48.8457V49.7012C107.872 49.8457 107.55 49.9512 107.229 50.0176C106.913 50.084 106.538 50.1172 106.104 50.1172C105.487 50.1172 104.948 49.9922 104.487 49.7422C104.03 49.4883 103.675 49.1172 103.421 48.6289C103.167 48.1406 103.04 47.543 103.04 46.8359C103.04 46.1445 103.155 45.5469 103.386 45.043C103.62 44.5352 103.948 44.1445 104.37 43.8711C104.796 43.5977 105.296 43.4609 105.87 43.4609ZM105.858 44.2578C105.339 44.2578 104.925 44.4277 104.616 44.7676C104.308 45.1074 104.124 45.582 104.065 46.1914H107.464C107.46 45.8086 107.399 45.4727 107.282 45.1836C107.169 44.8906 106.995 44.6641 106.761 44.5039C106.526 44.3398 106.226 44.2578 105.858 44.2578Z" fill="#999999"/>
<defs>
<filter id="filter0_d_20287_275" x="0" y="0" width="441" height="81" filterUnits="userSpaceOnUse" color-interpolation-filters="sRGB">
<feFlood flood-opacity="0" result="BackgroundImageFix"/>
<feColorMatrix in="SourceAlpha" type="matrix" values="0 0 0 0 0 0 0 0 0 0 0 0 0 0 0 0 0 0 127 0" result="hardAlpha"/>
<feOffset dx="1" dy="3"/>
<feGaussianBlur stdDeviation="4"/>
<feComposite in2="hardAlpha" operator="out"/>
<feColorMatrix type="matrix" values="0 0 0 0 0 0 0 0 0 0 0 0 0 0 0 0 0 0 0.25 0"/>
<feBlend mode="normal" in2="BackgroundImageFix" result="effect1_dropShadow_20287_275"/>
<feBlend mode="normal" in="SourceGraphic" in2="effect1_dropShadow_20287_275" result="shape"/>
</filter>
<filter id="filter1_d_20287_275" x="0" y="25" width="441" height="99" filterUnits="userSpaceOnUse" color-interpolation-filters="sRGB">
<feFlood flood-opacity="0" result="BackgroundImageFix"/>
<feColorMatrix in="SourceAlpha" type="matrix" values="0 0 0 0 0 0 0 0 0 0 0 0 0 0 0 0 0 0 127 0" result="hardAlpha"/>
<feOffset dx="1" dy="3"/>
<feGaussianBlur stdDeviation="4"/>
<feComposite in2="hardAlpha" operator="out"/>
<feColorMatrix type="matrix" values="0 0 0 0 0 0 0 0 0 0 0 0 0 0 0 0 0 0 0.25 0"/>
<feBlend mode="normal" in2="BackgroundImageFix" result="effect1_dropShadow_20287_275"/>
<feBlend mode="normal" in="SourceGraphic" in2="effect1_dropShadow_20287_275" result="shape"/>
</filter>
</defs>
</svg>
